<svg xmlns="http://www.w3.org/2000/svg" xmlns:xlink="http://www.w3.org/1999/xlink" width="400" height="400" viewBox="0 0 400 400">
  <defs>
    <linearGradient id="linear-gradient" x1="0.858" y1="0.857" x2="0.098" y2="0.209" gradientUnits="objectBoundingBox">
      <stop offset="0" stop-color="#2eb2ab"/>
      <stop offset="1" stop-color="#144f4c" stop-opacity="0"/>
      <stop offset="1" stop-color="#040505"/>
    </linearGradient>
  </defs>
  <g id="Group_812" data-name="Group 812" transform="translate(1415.056 234.52)">
    <path id="Path_872" data-name="Path 872" d="M-1139.861,127.042c-53.75,35.658-133.955,40.582-181.31,0-3.853-3.3-42.682-37.344-34-67.991,4.608-16.254,20.284-23.417,38.251-29.474,24.376-8.209,52.958-14.393,63.736-38.515A39.36,39.36,0,0,0-1250.6-33.5v-.012c-2.14-10.792-7.755-21.632-13.246-33.907v-.014c-.012-.012-.012-.024-.024-.036v-.014c-7.064-15.8-13.9-33.969-12.755-57.338.139-2.845.391-5.767.78-8.763,3.061-23.57,14.354-54.028,33.871-73.067a70.359,70.359,0,0,1,11.305-9.051,55.89,55.89,0,0,1,22.815-8.537,67.165,67.165,0,0,1,15.336-.3,72.725,72.725,0,0,1,13.977,2.67c22.676,6.6,42.128,23.468,50.01,42.96,9.581,23.707-2.128,40.983-8.914,62.047-3.752,11.6-6.007,24.338-2.418,39.94a68.636,68.636,0,0,0,4.042,12.289,68.767,68.767,0,0,0,14.58,21c9.23,9.329,20.07,16.317,29.337,24.6,9.355,8.36,17.125,18.044,20.032,32.762C-1063.069,58.209-1107.163,105.35-1139.861,127.042Z" transform="translate(20.137 9.818)" fill="#98c985"/>
    <path id="Path_873" data-name="Path 873" d="M-1139.861,127.042c-53.75,35.658-133.955,40.582-181.31,0-3.853-3.3-42.682-37.344-34-67.991,4.608-16.254,20.284-23.417,38.251-29.474,24.376-8.209,52.958-14.393,63.736-38.515A39.36,39.36,0,0,0-1250.6-33.5v-.012c-2.14-10.792-7.755-21.632-13.246-33.907v-.014c-.012-.012-.012-.024-.024-.036v-.014c-7.064-15.8-13.9-33.969-12.755-57.338.139-2.845.391-5.767.78-8.763,3.061-23.57,14.354-54.028,33.871-73.067a70.359,70.359,0,0,1,11.305-9.051,55.89,55.89,0,0,1,22.815-8.537,67.165,67.165,0,0,1,15.336-.3,72.725,72.725,0,0,1,13.977,2.67c22.676,6.6,42.128,23.468,50.01,42.96,9.581,23.707-2.128,40.983-8.914,62.047-3.752,11.6-6.007,24.338-2.418,39.94a68.636,68.636,0,0,0,4.042,12.289,68.767,68.767,0,0,0,14.58,21c9.23,9.329,20.07,16.317,29.337,24.6,9.355,8.36,17.125,18.044,20.032,32.762C-1063.069,58.209-1107.163,105.35-1139.861,127.042Z" transform="translate(20.137 9.818)" fill="url(#linear-gradient)"/>
    <g id="Group_811" data-name="Group 811" transform="translate(-1313.336 -234.52)">
      <path id="Path_874" data-name="Path 874" d="M-1253.121-70.329a51.2,51.2,0,0,1-56.988-44.648,51.193,51.193,0,0,1,44.649-57,51.186,51.186,0,0,1,56.985,44.646A51.192,51.192,0,0,1-1253.121-70.329Z" transform="translate(1380.099 297.613)" fill="#80c9be"/>
      <path id="Path_875" data-name="Path 875" d="M-1253.121-70.329a51.2,51.2,0,0,1-56.988-44.648,51.193,51.193,0,0,1,44.649-57,51.186,51.186,0,0,1,56.985,44.646A51.192,51.192,0,0,1-1253.121-70.329Z" transform="translate(1380.099 297.613)" fill="#fff"/>
      <circle id="Ellipse_110" data-name="Ellipse 110" cx="23.058" cy="23.058" r="23.058" transform="translate(86.963 148.244)" fill="#040505"/>
      <path id="Path_876" data-name="Path 876" d="M-1132.8-33.821a68.765,68.765,0,0,1-14.58-21,68.636,68.636,0,0,1-4.042-12.289c-3.589-15.6-1.334-28.344,2.418-39.94l-.379-.3a120.333,120.333,0,0,0-29.978-17.336,119.362,119.362,0,0,0-34.576-8.185v-9.468a12.544,12.544,0,0,1-5.263-10.224,12.545,12.545,0,0,1,5.263-10.226v-7.074a32.731,32.731,0,0,0,25.5-31.918,32.25,32.25,0,0,0-1.66-10.274,32.717,32.717,0,0,0-31.076-22.462c-.54,0-1.07.012-1.6.036a15.027,15.027,0,0,1,3.574,9.758c0,.53-.024,1.058-.074,1.574a21.392,21.392,0,0,1,15.2,8.424,21.341,21.341,0,0,1,4.356,12.944,21.458,21.458,0,0,1-21.455,21.467,21.459,21.459,0,0,1-21.455-21.467,20.953,20.953,0,0,1,.4-4.1,21.154,21.154,0,0,1,1.663-5.088,15.145,15.145,0,0,1-8-8.739,32.506,32.506,0,0,0-5.352,17.931,31.976,31.976,0,0,0,.379,4.947,32.73,32.73,0,0,0,25.118,26.972v36.627a120.216,120.216,0,0,0-59.768,18.231,120.713,120.713,0,0,0-56.849,102.515c0,22.539,6.007,39.422,16.557,51.888,20.637,24.463,58.674,31.993,102.855,31.993,46.3,0,87.181-8.259,107.868-35.608,7.427-9.807,12.263-22.071,13.786-37.294.264-2.48.441-5.049.5-7.705C-1112.733-17.5-1123.573-24.492-1132.8-33.821Zm-46.321-.038c-.216.4-.441.794-.669,1.2-.214.365-.427.741-.641,1.106a.234.234,0,0,0-.05.077c-.24.391-.492.78-.732,1.159l-.755,1.132c-.327.48-.655.945-.981,1.41-.353.453-.693.907-1.032,1.348-.705.893-1.449,1.775-2.2,2.619-.617.679-1.247,1.334-1.888,1.989-.29.29-.58.578-.883.868-.024.024-.062.05-.1.089-.326.314-.667.617-1.008.919s-.679.6-1.031.907c-.5.427-1.02.856-1.55,1.271-.314.24-.629.492-.957.729-.2.165-.415.316-.617.467h-.012c-.4.3-.818.578-1.234.868-.34.238-.681.465-1.033.679a.9.9,0,0,1-.125.089c-.882.566-1.775,1.1-2.7,1.612a2.57,2.57,0,0,1-.264.139c-.83.465-1.674.893-2.543,1.308-.089.038-.177.089-.264.127-.177.089-.365.175-.554.264a1.746,1.746,0,0,1-.24.1c-.353.163-.705.328-1.07.465-.2.1-.415.177-.63.266-.012,0-.012.012-.024.012-.491.214-1.007.4-1.523.592l-.3.113c-.643.238-1.3.453-1.952.667-.742.24-1.5.453-2.253.655-.391.1-.77.2-1.159.29a10.039,10.039,0,0,1-1.033.238c-.439.115-.88.2-1.322.278-.389.075-.78.151-1.183.214s-.806.139-1.209.189c-.4.075-.818.125-1.233.175-.518.064-1.022.113-1.538.151-.377.038-.768.062-1.144.089a7.187,7.187,0,0,1-.731.05c-.415.024-.818.05-1.233.05-.542.024-1.084.038-1.612.038-.379,0-.755,0-1.132-.026-.215,0-.429,0-.63-.012s-.377-.012-.554-.026c-.4-.012-.806-.036-1.209-.062-.29-.024-.566-.038-.856-.062l-.3-.038c-.389-.038-.78-.075-1.159-.113-.175-.024-.339-.038-.516-.062-.214-.026-.439-.062-.655-.1-.326-.038-.641-.089-.969-.139a.927.927,0,0,1-.19-.038,1,1,0,0,1-.187-.024c-.266-.038-.518-.089-.77-.139a1.688,1.688,0,0,1-.353-.075c-.036,0-.062-.014-.1-.014-.2-.024-.4-.075-.6-.113-.089-.024-.189-.038-.278-.062-.528-.1-1.046-.228-1.562-.341a1.478,1.478,0,0,0-.252-.062c-.151-.038-.29-.077-.439-.127-.367-.087-.744-.187-1.108-.3-.1-.024-.189-.05-.29-.075-.643-.177-1.285-.379-1.914-.592-.4-.139-.794-.264-1.183-.415-.34-.113-.669-.24-.983-.365-1.435-.542-2.833-1.159-4.193-1.826-.339-.165-.679-.341-1.02-.518s-.667-.339-.993-.528a.013.013,0,0,1-.014-.012,3.711,3.711,0,0,1-.326-.177c-.554-.3-1.1-.617-1.638-.957-.327-.187-.653-.377-.969-.59s-.641-.4-.957-.631c-.314-.2-.629-.4-.931-.641-.643-.429-1.271-.895-1.888-1.374-.29-.214-.568-.439-.844-.667-.629-.49-1.247-1.007-1.838-1.547-.252-.216-.5-.441-.744-.681-.276-.24-.554-.5-.83-.78-.278-.252-.554-.516-.806-.794-.568-.542-1.084-1.082-1.576-1.65a.341.341,0,0,1-.062-.075V-23.7a5.606,5.606,0,0,1-.691-.768v-.014a40.8,40.8,0,0,1-3.514-4.5v-.012c-.24-.314-.441-.617-.643-.931v-.012c-.214-.316-.427-.643-.617-.971-.214-.326-.415-.655-.6-.981-.6-.981-1.159-1.989-1.675-3.022v-.012c-.175-.353-.353-.693-.5-1.046-.516-1.044-.993-2.114-1.411-3.21-.151-.365-.288-.731-.415-1.1A22.972,22.972,0,0,1-1273-42.5a48.9,48.9,0,0,1-2.065-9.379,52.989,52.989,0,0,1-.365-5.779v-.014c0-.554,0-1.108.024-1.662.014-1.195.089-2.365.2-3.538.064-.792.151-1.574.278-2.341a43.357,43.357,0,0,1,1.132-5.69c.077-.379.19-.744.3-1.12.089-.367.2-.744.328-1.108.214-.731.453-1.461.729-2.178.24-.719.516-1.437.818-2.142.139-.365.29-.705.453-1.058.29-.705.6-1.384.957-2.063.3-.655.631-1.286.983-1.914a1.072,1.072,0,0,1,.125-.214,8.873,8.873,0,0,1,.5-.895c.177-.328.365-.655.58-.983.175-.314.365-.617.566-.919.2-.339.427-.667.655-.993.2-.316.415-.631.641-.933.2-.314.429-.629.655-.931.19-.278.391-.542.6-.806a45.436,45.436,0,0,1,3.01-3.576c.24-.276.5-.554.78-.83.252-.278.53-.554.794-.818.578-.568,1.159-1.122,1.763-1.662.238-.228.49-.441.741-.655.58-.5,1.159-1,1.751-1.461s1.209-.933,1.826-1.384c.3-.228.616-.441.931-.655.064-.05.115-.089.177-.139.024-.012.05-.038.074-.05.139-.1.278-.189.429-.29.024-.012.038-.024.063-.038.062-.036.139-.087.2-.125.089-.062.177-.127.264-.177a4.074,4.074,0,0,1,.441-.276c.365-.24.731-.465,1.108-.693s.743-.439,1.132-.655l.015-.012c.338-.189.667-.365,1.007-.542.741-.4,1.485-.78,2.24-1.12a2.746,2.746,0,0,1,.377-.189l.151-.075c.115-.05.24-.1.352-.151a1.443,1.443,0,0,0,.189-.1.369.369,0,0,0,.113-.05l.453-.189c.1-.05.214-.087.314-.125.328-.151.655-.29.983-.415.29-.115.566-.228.842-.328s.568-.2.856-.314c.933-.341,1.89-.655,2.859-.933.586-.169,1.181-.322,1.779-.474.3-.077.6-.153.9-.218.642-.151,1.3-.3,1.952-.429.288-.05.59-.113.893-.163s.6-.113.895-.151c.314-.05.617-.1.931-.139.29-.036.592-.075.882-.113.5-.062,1.007-.113,1.511-.163s1.005-.077,1.509-.113c.064,0,.127-.014.2-.014.705-.04,1.406-.06,2.107-.075.207,0,.415-.008.625-.01.258,0,.516.008.774.01.2,0,.391.006.586.012.29,0,.566,0,.856.012h.113l.044,0c.439.016.875.052,1.312.081.248.016.5.03.748.054.532.044,1.074.1,1.61.155.173.02.349.036.52.058h.01c.569.077,1.121.151,1.675.24l.032.006c.2.03.4.06.6.095,1.225.212,2.426.471,3.629.756,1.307.326,2.605.705,3.876,1.12.566.189,1.135.391,1.687.6,1.122.415,2.231.868,3.312,1.36.542.252,1.07.5,1.612.768q1.587.795,3.123,1.7a51.577,51.577,0,0,1,17.665,17.25,51.229,51.229,0,0,1,7.251,20.737,50.918,50.918,0,0,1-4.457,27.913C-1178.282-35.483-1178.7-34.665-1179.124-33.859Z" transform="translate(1345.036 234.52)" fill="#80c9be"/>
      <path id="Path_877" data-name="Path 877" d="M-1269.407-103.45c3.919,6.667,11.62,9.754,18.225,7.7,8.015-2.492,10.591-11.366,10.524-16.941a18.783,18.783,0,0,0-2.825-9.5" transform="translate(1421.792 348.528)" fill="none" stroke="#040505" stroke-linecap="round" stroke-miterlimit="10" stroke-width="6"/>
      <circle id="Ellipse_214" data-name="Ellipse 214" cx="8.184" cy="8.184" r="8.184" transform="translate(37.631 136.348)" fill="#63c0b8"/>
      <path id="Path_878" data-name="Path 878" d="M-1231.887-162.677a17.309,17.309,0,0,1-14.517,7.856,17.339,17.339,0,0,1-17.338-17.348,17.286,17.286,0,0,1,1.876-7.846A120.417,120.417,0,0,1-1231.887-162.677Z" transform="translate(1427.541 289.838)" fill="#63c0b8"/>
      <circle id="Ellipse_215" data-name="Ellipse 215" cx="5.491" cy="5.491" r="5.491" transform="translate(57.986 218.958)" fill="#63c0b8"/>
      <circle id="Ellipse_216" data-name="Ellipse 216" cx="17.076" cy="17.076" r="17.076" transform="translate(25.906 181.256)" fill="#f6b0b3" opacity="0.7"/>
      <path id="Path_879" data-name="Path 879" d="M-1222.753-124.271a17.059,17.059,0,0,1-16.583,13.03,17.071,17.071,0,0,1-17.072-17.072,17.082,17.082,0,0,1,17.072-17.086,14.9,14.9,0,0,1,2,.127A68.766,68.766,0,0,0-1222.753-124.271Z" transform="translate(1434.985 324.97)" fill="#f6b0b3" opacity="0.7"/>
      <circle id="Ellipse_217" data-name="Ellipse 217" cx="5.491" cy="5.491" r="5.491" transform="translate(8.322 248.897)" fill="#63c0b8"/>
      <circle id="Ellipse_218" data-name="Ellipse 218" cx="4.776" cy="4.776" r="4.776" transform="translate(119.978 280.413)" fill="#63c0b8"/>
      <path id="Path_880" data-name="Path 880" d="M-1212.006-118.3c-1.523,15.223-6.357,27.487-13.786,37.294a19.863,19.863,0,0,1-12.793-18.571,19.882,19.882,0,0,1,19.881-19.881A19.649,19.649,0,0,1-1212.006-118.3Z" transform="translate(1453.074 351.299)" fill="#63c0b8"/>
      <path id="Path_881" data-name="Path 881" d="M-1267.8-224.744c0,.53-.024,1.058-.075,1.574-.631-.062-1.259-.087-1.9-.087a21.443,21.443,0,0,0-19.389,12.263,15.145,15.145,0,0,1-8-8.739A32.69,32.69,0,0,1-1271.37-234.5,15.026,15.026,0,0,1-1267.8-224.744Z" transform="translate(1393.629 234.538)" fill="#63c0b8"/>
      <path id="Path_882" data-name="Path 882" d="M-1277.322-198.921v20.449a12.544,12.544,0,0,1-5.263-10.224A12.545,12.545,0,0,1-1277.322-198.921Z" transform="translate(1408.418 270.65)" fill="#63c0b8"/>
    </g>
    <path id="Path_699" data-name="Path 699" d="M-1407.874-184.727a7.177,7.177,0,0,0-7.182,7.169,7.174,7.174,0,0,0,7.169,7.181,7.176,7.176,0,0,0,7.182-7.169v-.012A7.173,7.173,0,0,0-1407.874-184.727Zm0,12.67a5.5,5.5,0,0,1-5.5-5.491,5.5,5.5,0,0,1,5.492-5.5,5.5,5.5,0,0,1,5.5,5.493v0A5.5,5.5,0,0,1-1407.874-172.057Z" transform="translate(0 50.535)" fill="#eaf6f8" opacity="0.36" style="isolation: isolate"/>
    <path id="Path_701" data-name="Path 701" d="M-1317.262-226.214a4.745,4.745,0,0,0-4.745,4.745,4.746,4.746,0,0,0,4.745,4.747,4.746,4.746,0,0,0,4.745-4.747A4.745,4.745,0,0,0-1317.262-226.214Zm0,8.384a3.638,3.638,0,0,1-3.641-3.635,3.638,3.638,0,0,1,3.635-3.641,3.638,3.638,0,0,1,3.641,3.635,3.646,3.646,0,0,1-3.635,3.641Z" transform="translate(77.268 8.43)" fill="#eaf6f8" opacity="0.36" style="isolation: isolate"/>
    <path id="Path_702" data-name="Path 702" d="M-1196.914-138.459a7.181,7.181,0,0,0-7.214,7.149,7.181,7.181,0,0,0,7.149,7.213,7.181,7.181,0,0,0,7.213-7.149v-.032A7.174,7.174,0,0,0-1196.914-138.459Zm0,12.686a5.5,5.5,0,0,1-5.537-5.472,5.506,5.506,0,0,1,5.473-5.537,5.507,5.507,0,0,1,5.537,5.472v.032A5.509,5.509,0,0,1-1196.914-125.773Z" transform="translate(174.71 97.493)" fill="#eaf6f8" opacity="0.36" style="isolation: isolate"/>
    <rect id="Rectangle_633" data-name="Rectangle 633" width="7.94" height="7.94" transform="translate(-1389.982 -27.657) rotate(-45)" fill="#eaf6f8" opacity="0.42" style="isolation: isolate"/>
    <rect id="Rectangle_634" data-name="Rectangle 634" width="4.268" height="4.268" transform="translate(-1267.824 125.03) rotate(-45)" fill="#eaf6f8" opacity="0.42" style="isolation: isolate"/>
    <rect id="Rectangle_635" data-name="Rectangle 635" width="4.268" height="4.268" transform="translate(-1247.349 -132.514) rotate(-45)" fill="#eaf6f8" opacity="0.42" style="isolation: isolate"/>
    <rect id="Rectangle_636" data-name="Rectangle 636" width="7.94" height="7.94" transform="translate(-1108.789 -169.828) rotate(-45)" fill="#eaf6f8" opacity="0.42" style="isolation: isolate"/>
    <rect id="Rectangle_637" data-name="Rectangle 637" width="7.94" height="7.94" transform="translate(-1063.786 64.059) rotate(-45)" fill="#eaf6f8" opacity="0.42" style="isolation: isolate"/>
  </g>
</svg>
