<svg xmlns="http://www.w3.org/2000/svg" xmlns:xlink="http://www.w3.org/1999/xlink" width="195.133" height="195.134" viewBox="0 0 195.133 195.134">
  <defs>
    <style>
      .cls-1 {
        fill: #ffc087;
      }

      .cls-2 {
        fill: url(#linear-gradient);
      }

      .cls-3 {
        fill: #b3b3b3;
      }

      .cls-4 {
        fill: #ccc;
      }

      .cls-5 {
        fill: #fff;
      }

      .cls-6, .cls-7 {
        fill: #ff9147;
      }

      .cls-7 {
        opacity: 0.5;
      }

      .cls-8, .cls-9 {
        fill: #ecffff;
      }

      .cls-8 {
        opacity: 0.36;
      }

      .cls-9 {
        opacity: 0.42;
      }

      .cls-10 {
        filter: url(#Ellipse_132);
      }
    </style>
    <filter id="Ellipse_132" x="0" y="0" width="195.133" height="195.134" filterUnits="userSpaceOnUse">
      <feOffset dy="6" input="SourceAlpha"/>
      <feGaussianBlur stdDeviation="3" result="blur"/>
      <feFlood flood-opacity="0.161"/>
      <feComposite operator="in" in2="blur"/>
      <feComposite in="SourceGraphic"/>
    </filter>
    <linearGradient id="linear-gradient" x1="0.5" x2="0.5" y2="1" gradientUnits="objectBoundingBox">
      <stop offset="0" stop-color="#ffdec1"/>
      <stop offset="1" stop-color="#806f61" stop-opacity="0"/>
    </linearGradient>
  </defs>
  <g id="Group_740" data-name="Group 740" transform="translate(-329 -3309.418)">
    <g id="Group_680" data-name="Group 680" transform="translate(305.583 3280)">
      <g class="cls-10" transform="matrix(1, 0, 0, 1, 23.42, 29.42)">
        <circle id="Ellipse_132-2" data-name="Ellipse 132" class="cls-1" cx="88.567" cy="88.567" r="88.567" transform="translate(9 3)"/>
      </g>
      <circle id="Ellipse_143" data-name="Ellipse 143" class="cls-2" cx="88.567" cy="88.567" r="88.567" transform="translate(32.418 209.551) rotate(-90)"/>
    </g>
    <g id="Group_695" data-name="Group 695" transform="translate(308.668 2947.618)">
      <path id="Path_695" data-name="Path 695" class="cls-3" d="M159.2,479.918a5.312,5.312,0,0,1-1.24,2,5.178,5.178,0,0,1-3.67,1.52H81.109a5.191,5.191,0,0,1-4.92-3.52,1.253,1.253,0,0,1,1.17-1.67h80.67A1.253,1.253,0,0,1,159.2,479.918Z"/>
      <path id="Rectangle_628" data-name="Rectangle 628" class="cls-4" d="M4.233,0H68.886a4.233,4.233,0,0,1,4.233,4.233V45.311a0,0,0,0,1,0,0H0a0,0,0,0,1,0,0V4.233A4.233,4.233,0,0,1,4.233,0Z" transform="translate(81.135 432.937)"/>
      <path id="Rectangle_629" data-name="Rectangle 629" class="cls-5" d="M3.419,0H66.473a3.419,3.419,0,0,1,3.419,3.419v39.1a0,0,0,0,1,0,0H0a0,0,0,0,1,0,0V3.419A3.419,3.419,0,0,1,3.419,0Z" transform="translate(82.858 434.734)"/>
      <g id="Group_691" data-name="Group 691">
        <circle id="Ellipse_146" data-name="Ellipse 146" class="cls-6" cx="17.004" cy="17.004" r="17.004" transform="translate(135.635 415.932)"/>
      </g>
      <g id="Group_692" data-name="Group 692">
        <path id="Path_696" data-name="Path 696" class="cls-5" d="M154.51,444.782h-3.741a2.025,2.025,0,0,1-1.87-2.245v-2.618a4.332,4.332,0,0,0-1.621-3.242,8.618,8.618,0,0,1-3.366-6.982,8.872,8.872,0,0,1,8.6-8.6,8.762,8.762,0,0,1,6.234,2.494,8.873,8.873,0,0,1,2.618,6.234,8.385,8.385,0,0,1-3.242,6.733,4.55,4.55,0,0,0-1.745,3.491v2.867a1.918,1.918,0,0,1-1.87,1.871Zm-1.871-22.443a7.647,7.647,0,0,0-7.481,7.356,7.331,7.331,0,0,0,2.868,5.985,5.432,5.432,0,0,1,2.12,4.239v2.618c0,.25,0,1,.623,1h3.741a.589.589,0,0,0,.623-.624v-2.867a6.061,6.061,0,0,1,2.244-4.489,7.268,7.268,0,0,0,2.743-5.735,7.456,7.456,0,0,0-2.244-5.362,7.353,7.353,0,0,0-5.237-2.119Z"/>
      </g>
      <g id="Group_693" data-name="Group 693">
        <path id="Path_697" data-name="Path 697" class="cls-5" d="M155.756,441.041h-6.234a.623.623,0,0,1,0-1.247h6.234a.623.623,0,1,1,0,1.247Z"/>
      </g>
      <g id="Group_694" data-name="Group 694">
        <path id="Path_698" data-name="Path 698" class="cls-5" d="M157.627,430.443a.589.589,0,0,1-.624-.623,4.418,4.418,0,0,0-4.364-4.364.623.623,0,0,1,0-1.247,5.588,5.588,0,0,1,5.611,5.611A.588.588,0,0,1,157.627,430.443Z"/>
      </g>
      <rect id="Rectangle_630" data-name="Rectangle 630" class="cls-7" width="44.829" height="3.812" rx="1.875" transform="translate(88.605 441.041)"/>
      <rect id="Rectangle_631" data-name="Rectangle 631" class="cls-7" width="31.385" height="3.812" rx="1.875" transform="translate(88.605 446.558)"/>
      <rect id="Rectangle_632" data-name="Rectangle 632" class="cls-7" width="12.868" height="3.812" rx="1.875" transform="translate(134.878 468.216)"/>
      <path id="Path_699" data-name="Path 699" class="cls-8" d="M50.726,412.806a2.268,2.268,0,1,0,2.266,2.266A2.267,2.267,0,0,0,50.726,412.806Zm0,4.005a1.738,1.738,0,1,1,1.736-1.739A1.74,1.74,0,0,1,50.726,416.811Z"/>
      <path id="Path_700" data-name="Path 700" class="cls-8" d="M167.378,524.891a2.268,2.268,0,1,0,2.266,2.266A2.267,2.267,0,0,0,167.378,524.891Zm0,4.005a1.737,1.737,0,1,1,1.736-1.739A1.74,1.74,0,0,1,167.378,528.9Z"/>
      <path id="Path_701" data-name="Path 701" class="cls-8" d="M109.221,386.382a1.5,1.5,0,1,0,1.5,1.5A1.5,1.5,0,0,0,109.221,386.382Zm0,2.65a1.15,1.15,0,1,1,1.149-1.151A1.152,1.152,0,0,1,109.221,389.032Z"/>
      <path id="Path_702" data-name="Path 702" class="cls-8" d="M185.081,442.275a2.27,2.27,0,1,0,2.26,2.27A2.268,2.268,0,0,0,185.081,442.275Zm0,4.01a1.74,1.74,0,1,1,1.73-1.74A1.741,1.741,0,0,1,185.081,446.285Z"/>
      <rect id="Rectangle_633" data-name="Rectangle 633" class="cls-9" width="2.51" height="2.51" transform="translate(56.382 446.482) rotate(-45)"/>
      <rect id="Rectangle_634" data-name="Rectangle 634" class="cls-9" width="1.349" height="1.349" transform="translate(99.647 494.747) rotate(-45)"/>
      <rect id="Rectangle_635" data-name="Rectangle 635" class="cls-9" width="1.349" height="1.349" transform="translate(106.766 413.336) rotate(-45)"/>
      <rect id="Rectangle_636" data-name="Rectangle 636" class="cls-9" width="2.51" height="2.51" transform="translate(155.071 401.541) rotate(-45)"/>
      <rect id="Rectangle_637" data-name="Rectangle 637" class="cls-9" width="2.51" height="2.51" transform="translate(171.937 475.474) rotate(-45)"/>
      <rect id="Rectangle_638" data-name="Rectangle 638" class="cls-9" width="2.51" height="2.51" transform="translate(136.77 502.474) rotate(-45)"/>
    </g>
  </g>
</svg>
