<svg xmlns="http://www.w3.org/2000/svg" width="363.463" height="310.33" viewBox="0 0 363.463 310.33">
  <g id="Group_818" data-name="Group 818" transform="translate(-342.212 -1517.891)">
    <path id="Rectangle_680" data-name="Rectangle 680" d="M5.583.76,47.835,9.008a3.867,3.867,0,0,1,1.438.6,3.927,3.927,0,0,1,1.06,1.074,3.986,3.986,0,0,1,.591,2.975l-.162.835A3.984,3.984,0,0,1,49.1,17.026a3.925,3.925,0,0,1-1.385.6,3.866,3.866,0,0,1-1.558.016L3.9,9.441a3.93,3.93,0,0,1-1.456-.6A4,4,0,0,1,.762,4.763l.163-.84A3.993,3.993,0,0,1,4.008.773,3.929,3.929,0,0,1,5.583.76Z" transform="translate(561.463 1542.752)" fill="#9db5ff" opacity="0.84"/>
    <path id="Rectangle_682" data-name="Rectangle 682" d="M5.585.751,47.856,8.9a3.862,3.862,0,0,1,1.439.6,3.914,3.914,0,0,1,1.061,1.071,3.976,3.976,0,0,1,.591,2.972l-.162.835a3.993,3.993,0,0,1-1.663,2.539,3.937,3.937,0,0,1-1.386.6,3.872,3.872,0,0,1-1.558.019L3.9,9.432A3.931,3.931,0,0,1,1.365,7.755a3.987,3.987,0,0,1-.6-2.993l.163-.84A4.005,4.005,0,0,1,4.009.767,3.935,3.935,0,0,1,5.585.751Z" transform="translate(556.396 1568.818)" fill="#ffcdcd" opacity="0.84"/>
    <path id="Path_763" data-name="Path 763" d="M24.2-941.786a154.924,154.924,0,0,1,123.88-61.724,154.944,154.944,0,0,1,125.594,64.04,175.391,175.391,0,0,1-26.176,7.53c-18.159,3.7-37,4.475-87.9-1.407-38.593-4.462-49.76-7.456-66.755-9.4A274.069,274.069,0,0,0,24.2-941.786Z" transform="translate(371.534 2521.401)" fill="#80c9be"/>
    <path id="Path_764" data-name="Path 764" d="M321.248-907.528c-2.311.99-4.775,2.006-7.365,2.971q-1.943.724-3.962,1.448a175.418,175.418,0,0,1-22.806,6.324c-18.133,3.682-36.978,4.47-87.9-1.422-6.044-.686-11.4-1.346-16.2-1.981-1.93-.254-3.759-.482-5.536-.736-.863-.1-1.727-.229-2.59-.356-1.676-.228-3.276-.457-4.825-.685-16.965-2.463-25.9-4.292-37.587-5.638a271.665,271.665,0,0,0-63.466.33q-7.7-2.324-14.756-4.826C31.09-920.328,18.824-925.179,12.5-927.845c.584-4.14,1.346-8.254,2.26-12.292q1.6-7.01,3.81-13.765c1.092-3.352,2.311-6.654,3.632-9.9a327.1,327.1,0,0,1,46.349-2.413c54.324,1.016,78.831,15.137,122.692,18.794,27.682,2.311,67.632.838,118.146-17.88A155.149,155.149,0,0,1,321.248-907.528Z" transform="translate(353.522 2578.721)" fill="#80c9be"/>
    <path id="Path_765" data-name="Path 765" d="M55.207-935.4q7.048,2.515,14.756,4.826c-7.01.813-14.349,1.9-21.994,3.4a346.51,346.51,0,0,0-35.733,8.762c-.229-3.479-.356-7.009-.356-10.565,0-3.936.152-7.848.432-11.708.254-3.53.635-7.01,1.143-10.464C19.778-948.48,32.045-943.63,55.207-935.4Z" transform="translate(352.568 2602.023)" fill="#53a384"/>
    <path id="Path_766" data-name="Path 766" d="M209.911-914.425c39.67,6.629,84.063,9.143,107.631,9.981-.051.279-.1.533-.178.813-.762,3-1.6,5.943-2.514,8.863a153.6,153.6,0,0,1-15.213,33.575c-2.21,3.708-4.622,7.314-7.162,10.819a156.166,156.166,0,0,1-32.66,33.168,150.727,150.727,0,0,1-15.543,10.26h-.025a154.3,154.3,0,0,1-77.409,20.673A154.589,154.589,0,0,1,63.5-825.689q-4.533-4.038-8.736-8.432A153.781,153.781,0,0,1,38.28-854.539c-1.727-2.565-3.4-5.181-4.978-7.848a154.027,154.027,0,0,1-16.686-40.076c-.3-1.143-.584-2.285-.863-3.454-.533-2.311-1.016-4.648-1.473-6.984a155.245,155.245,0,0,1-2.26-17.981,346.557,346.557,0,0,1,35.733-8.762c7.644-1.5,14.984-2.59,21.994-3.4C110.153-930.857,162.8-922.324,209.911-914.425Z" transform="translate(352.783 2614.494)" fill="#80c9be"/>
    <path id="Path_767" data-name="Path 767" d="M132.32-922.873c.66-2.693,1.244-5.435,1.778-8.2-.508,2.768-1.092,5.511-1.752,8.2Z" transform="translate(538.006 2632.924)" fill="#b986ee"/>
    <path id="Path_768" data-name="Path 768" d="M133.02-928.151c.3-1.6.584-3.2.838-4.825-.254,1.625-.533,3.225-.813,4.825Z" transform="translate(539.084 2629.999)" fill="#b986ee"/>
    <path id="Path_769" data-name="Path 769" d="M134.318-936.707c-.152,1.575-.33,3.149-.508,4.7-.1.787-.2,1.6-.33,2.388.1-.787.2-1.6.3-2.388C133.988-933.558,134.166-935.132,134.318-936.707Z" transform="translate(539.792 2624.255)" fill="#b986ee"/>
    <path id="Path_770" data-name="Path 770" d="M303.506-943.788c-50.514,18.717-90.463,20.19-118.146,17.879-43.86-3.657-68.368-17.778-122.692-18.794A327.07,327.07,0,0,0,16.32-942.29a153.955,153.955,0,0,1,20.013-35.3,274.6,274.6,0,0,1,68.647-.965c16.99,1.955,28.165,4.952,66.743,9.4,50.9,5.892,69.739,5.13,87.9,1.422a176.215,176.215,0,0,0,26.184-7.543A155.058,155.058,0,0,1,303.506-943.788Z" transform="translate(359.403 2557.204)" fill="#53a384"/>
    <path id="Path_771" data-name="Path 771" d="M286.99-942.073v1.854c0,4.9-.229,9.727-.66,14.5-.152,1.575-.33,3.149-.533,4.7-.1.787-.2,1.6-.3,2.387-.1.813-.2,1.6-.33,2.388-.254,1.625-.533,3.225-.838,4.825-.533,2.768-1.117,5.511-1.778,8.2-23.568-.838-67.962-3.353-107.631-9.981C127.8-921.1,75.156-929.628,34.75-941.819a271.658,271.658,0,0,1,63.466-.33c11.682,1.346,20.622,3.175,37.587,5.638,1.549.229,3.149.457,4.825.686.863.127,1.727.254,2.59.355,1.778.254,3.606.483,5.537.737,4.8.635,10.159,1.295,16.2,1.981,50.92,5.892,69.765,5.1,87.9,1.422a175.315,175.315,0,0,0,22.806-6.324q2.019-.723,3.962-1.448C282.216-940.066,284.679-941.082,286.99-942.073Z" transform="translate(387.78 2613.266)" fill="#53a384"/>
    <path id="Path_772" data-name="Path 772" d="M317.543-904.444c-.076.279-.127.533-.2.813-10.235,3.276-19.987,5.841-29.257,7.822a252.507,252.507,0,0,1-74.489,5.079c-43.86-3.657-68.368-17.778-122.692-18.793a331.8,331.8,0,0,0-74.285,7.06h-.025c-.3-1.143-.584-2.285-.838-3.454-.533-2.311-1.016-4.648-1.473-6.984a155.245,155.245,0,0,1-2.26-17.981,346.557,346.557,0,0,1,35.733-8.762c7.644-1.5,14.984-2.59,21.994-3.4,40.406,12.19,93.054,20.724,140.165,28.622C249.581-907.8,293.975-905.282,317.543-904.444Z" transform="translate(352.783 2614.494)" fill="#53a384"/>
    <path id="Path_773" data-name="Path 773" d="M286.75-904.837q-3.349,5.566-7.172,10.819a156.153,156.153,0,0,1-32.67,33.166,242.7,242.7,0,0,1-45.529.507c-43.86-3.659-68.365-17.778-122.687-18.8a325.1,325.1,0,0,0-36.815,1.387,155.719,155.719,0,0,1-16.5-20.414c-1.735-2.57-3.406-5.181-4.98-7.858C62.9-916.164,96.61-915.8,121-912.992c16.985,1.945,28.165,4.94,66.748,9.4,50.913,5.879,69.75,5.107,87.9,1.407C279.5-902.966,283.207-903.865,286.75-904.837Z" transform="translate(365.68 2658.143)" fill="#53a384"/>
    <path id="Path_885" data-name="Path 885" d="M1099.42,726.647,1033.247,841.26a7.158,7.158,0,0,1-12.4,0L954.677,726.647a7.158,7.158,0,0,1,6.2-10.737H987.93a7.158,7.158,0,0,0,7.158-7.158V617.158a7.158,7.158,0,0,1,7.158-7.158h49.606a7.158,7.158,0,0,1,7.158,7.158v91.594a7.158,7.158,0,0,0,7.158,7.158h27.054A7.158,7.158,0,0,1,1099.42,726.647Z" transform="translate(-507.794 951.148)" fill="#3fa895"/>
    <path id="Path_774" data-name="Path 774" d="M366.464-876c-2.337,5.943-6.349,8.685-20.089,9.727q-8.952-.038-17.829-.229c-8.99-.228-17.93-.584-26.768-1.041-100.038-5.41-188.444-26.743-240.329-43.835-11.276-3.733-20.851-7.238-28.419-10.337-2.616-1.067-5.029-2.133-7.238-3.175C-12.2-942.613,7-954.5,16.218-958a55.316,55.316,0,0,1,16.787-3.4q-2.21,6.742-3.81,13.765a36.588,36.588,0,0,0-5.994,1.168c-12.927,3.606-2.59,8.228-2.59,8.228a63.953,63.953,0,0,0,6.324,2.9c6.324,2.666,18.59,7.517,41.752,15.746q7.048,2.515,14.756,4.826c40.406,12.19,93.054,20.723,140.165,28.622,39.67,6.629,84.063,9.143,107.631,9.981h.025c7.975.279,13.6.784,15.746.381,11.167-2.1-6.136-5.689-6.136-5.689l-7.832-2.9h-.025c.3-1.6.584-3.2.838-4.825.127-.787.229-1.575.33-2.387.1-.787.2-1.6.3-2.388h.025c6.2,1.651,15.8,4.394,22.425,7.187C367.531-882.347,366.718-876.633,366.464-876Z" transform="translate(339.087 2586.225)" fill="#d2b7b5"/>
  </g>
</svg>
