<svg xmlns="http://www.w3.org/2000/svg" xmlns:xlink="http://www.w3.org/1999/xlink" viewBox="0 0 400 400"><defs><style>.cls-1{fill:#9eda9a;}.cls-2{fill:url(#linear-gradient);}.cls-3,.cls-4,.cls-5,.cls-9{fill:#fff;}.cls-10,.cls-12,.cls-3,.cls-4,.cls-5{isolation:isolate;}.cls-3{opacity:0.1;}.cls-4{opacity:0.03;}.cls-5{opacity:0.02;}.cls-6{fill:#b986ee;}.cls-7{fill:#c194f0;}.cls-8{fill:#7bedd8;}.cls-10,.cls-17,.cls-18,.cls-19,.cls-27{fill:none;stroke-linecap:round;}.cls-10,.cls-19{stroke:#000;}.cls-10{stroke-miterlimit:10;opacity:0.53;}.cls-10,.cls-19,.cls-27{stroke-width:2px;}.cls-11{fill:#45edd8;}.cls-12,.cls-24{fill:#ffc0c0;}.cls-12{opacity:0.7;}.cls-13{fill:#95a1ee;}.cls-14{fill:#9db5ff;}.cls-15{fill:#8ba4f3;}.cls-16{fill:#1a1a1a;}.cls-17{stroke:#9db5ff;stroke-miterlimit:10;stroke-width:4px;}.cls-18{stroke:#efb8bb;stroke-width:8px;}.cls-18,.cls-19,.cls-27{stroke-miterlimit:10;}.cls-20{fill:#e17899;}.cls-21{fill:#ffabab;}.cls-22{fill:#ffcdcd;}.cls-23{fill:#e1abab;}.cls-25{fill:#5e72a4;}.cls-26{fill:#8de7be;}.cls-27{stroke:#603813;}</style><linearGradient id="linear-gradient" x1="-968.32" y1="-1536.9" x2="-969.27" y2="-1535.83" gradientTransform="translate(-387316.73 -614353.65) rotate(180) scale(400 400)" gradientUnits="userSpaceOnUse"><stop offset="0" stop-color="#24c0bb"/><stop offset="1" stop-color="#12605e" stop-opacity="0"/><stop offset="1"/></linearGradient></defs><g id="Layer_2" data-name="Layer 2"><g id="Layer_1-2" data-name="Layer 1"><g id="Group_796" data-name="Group 796"><g id="Group_795" data-name="Group 795"><path id="Path_645" data-name="Path 645" class="cls-1" d="M0,1V400H380a20,20,0,0,0,20-20V20a19.25,19.25,0,0,0-.25-3.13A20,20,0,0,0,380,0H1A1,1,0,0,0,0,1Z"/><path id="Path_646" data-name="Path 646" class="cls-2" d="M0,1V400H380a20,20,0,0,0,20-20V20a19.25,19.25,0,0,0-.25-3.13A20,20,0,0,0,380,0H1A1,1,0,0,0,0,1Z"/></g><path id="Path_863" data-name="Path 863" class="cls-3" d="M167.74,400h53.49a560.45,560.45,0,0,1,35.25-50.6c26.37-33.72,46.24-58.57,64.44-54.22,7.06,1.68,15.24,8.08,16.44,16,3.13,20.47-43.42,31.12-64.44,76.44A99.72,99.72,0,0,0,268.16,400h36c5.76-11.66,11.84-25.46,23-42.6,21.34-32.79,47.49-56.6,71.94-73.82v-96a209.31,209.31,0,0,0-66,32.23c-54.33,40.08-58.51,86.41-114.43,140.51A304.31,304.31,0,0,1,167.74,400Z"/><path id="Path_864" data-name="Path 864" class="cls-3" d="M0,86.19v78.47c52.34,15.72,120.85,25.91,174.07-8.59,26.15-17,28.88-31.92,55.55-58.67,57.08-57.24,128.58-73,170.13-80.53A20,20,0,0,0,380,0H261.46C237.11,6.85,212.91,17.4,191,33c-25.06,17.76-41.42,38-79.55,50.67C69.68,97.54,29.6,93.25,0,86.19Z"/></g><g id="Group_721" data-name="Group 721"><path id="Path_761" data-name="Path 761" class="cls-4" d="M200.24,103.18A110.83,110.83,0,0,0,89.4,214h0A110.82,110.82,0,0,0,200.24,324.84h0a110.83,110.83,0,0,0,0-221.66Zm-76,80.27a173.22,173.22,0,0,1,24.52-1.27c28.75.54,41.72,8,64.93,9.94,14.65,1.23,35.79.45,62.52-9.46a82.15,82.15,0,0,1,6.28,30.58v1q0,3.89-.35,7.67c-.08.84-.17,1.67-.28,2.49,0,.42-.11.85-.16,1.26s-.11.85-.18,1.27c-.13.86-.28,1.7-.44,2.55-.28,1.47-.59,2.92-.94,4.34a476.63,476.63,0,0,1-57-5.28c-24.93-4.18-52.79-8.7-74.17-15.15q-4.08-1.23-7.81-2.55c-12.26-4.36-18.75-6.92-22.1-8.33.31-2.19.71-4.37,1.2-6.51q.84-3.71,2-7.28C122.93,186.92,123.58,185.18,124.28,183.45Z"/><path id="Path_762" data-name="Path 762" class="cls-5" d="M200.87,57.78a156.23,156.23,0,0,0,0,312.46h0a156.23,156.23,0,1,0,0-312.46ZM124.28,183.45a173.22,173.22,0,0,1,24.52-1.27c28.75.54,41.72,8,64.93,9.94,14.65,1.23,35.79.45,62.52-9.46a82.15,82.15,0,0,1,6.28,30.58v1q0,3.89-.35,7.67c-.08.84-.17,1.67-.28,2.49,0,.42-.11.85-.16,1.26s-.11.85-.18,1.27c-.13.86-.28,1.7-.44,2.55-.28,1.47-.59,2.92-.94,4.34a476.63,476.63,0,0,1-57-5.28c-24.93-4.18-52.79-8.7-74.17-15.15q-4.08-1.23-7.81-2.55c-12.26-4.36-18.75-6.92-22.1-8.33.31-2.19.71-4.37,1.2-6.51q.84-3.71,2-7.28C122.93,186.92,123.58,185.18,124.28,183.45Z"/><path id="Path_763" data-name="Path 763" class="cls-6" d="M134.87,164.77a82.13,82.13,0,0,1,132,1.24A94,94,0,0,1,253,170c-9.61,2-19.58,2.37-46.52-.74-20.43-2.37-26.33-3.95-35.33-5A145.7,145.7,0,0,0,134.87,164.77Z"/><path id="Path_764" data-name="Path 764" class="cls-6" d="M282.53,213.24c-1.22.52-2.53,1.06-3.9,1.57l-2.09.77a93.83,93.83,0,0,1-12.07,3.34c-9.6,2-19.57,2.37-46.52-.75-3.2-.36-6-.71-8.57-1-1-.13-2-.25-2.93-.39-.46,0-.92-.12-1.37-.19l-2.56-.36c-9-1.3-13.71-2.27-19.89-3a143.41,143.41,0,0,0-33.58.17q-4.08-1.23-7.81-2.55c-12.26-4.36-18.75-6.92-22.1-8.33.31-2.19.71-4.37,1.2-6.51q.84-3.71,2-7.28c.58-1.78,1.23-3.52,1.93-5.25a173.22,173.22,0,0,1,24.52-1.27c28.75.54,41.72,8,64.93,9.94,14.65,1.23,35.79.45,62.52-9.46A82.15,82.15,0,0,1,282.53,213.24Z"/><path id="Path_765" data-name="Path 765" class="cls-6" d="M141.24,210.82c2.48.89,5.09,1.74,7.81,2.55-3.71.43-7.6,1-11.64,1.8a183,183,0,0,0-18.91,4.64c-.12-1.84-.19-3.71-.19-5.59q0-3.12.23-6.2c.13-1.86.33-3.71.6-5.53C122.49,203.89,129,206.46,141.24,210.82Z"/><path id="Path_766" data-name="Path 766" class="cls-6" d="M223.22,228.52a476.63,476.63,0,0,0,57,5.28c0,.15-.05.28-.09.43-.41,1.59-.85,3.15-1.34,4.69a81.06,81.06,0,0,1-8.05,17.77c-1.17,2-2.44,3.87-3.79,5.72A82.44,82.44,0,0,1,249.63,280a79,79,0,0,1-8.23,5.43h0a82.13,82.13,0,0,1-95.65-9.92c-1.6-1.43-3.14-2.91-4.62-4.46a82.4,82.4,0,0,1-8.73-10.81c-.91-1.36-1.8-2.74-2.63-4.15a81.66,81.66,0,0,1-8.83-21.21c-.16-.61-.31-1.21-.46-1.83-.28-1.22-.54-2.46-.78-3.69a82.53,82.53,0,0,1-1.19-9.52,183,183,0,0,1,18.91-4.64c4-.79,7.93-1.37,11.64-1.8C170.43,219.82,198.29,224.34,223.22,228.52Z"/><path id="Path_767" data-name="Path 767" class="cls-6" d="M280.18,233.8c.35-1.42.66-2.88.94-4.34-.27,1.47-.58,2.92-.93,4.34Z"/><path id="Path_768" data-name="Path 768" class="cls-6" d="M281.12,229.46c.16-.85.31-1.69.44-2.55-.13.86-.28,1.7-.43,2.55Z"/><path id="Path_769" data-name="Path 769" class="cls-6" d="M282.18,221.89q-.12,1.26-.27,2.49c-.05.42-.1.85-.17,1.26.05-.41.11-.84.16-1.26C282,223.56,282.1,222.73,282.18,221.89Z"/><path id="Path_770" data-name="Path 770" class="cls-7" d="M276.25,182.66c-26.73,9.9-47.87,10.68-62.52,9.46-23.21-1.94-36.18-9.41-64.93-10a174.72,174.72,0,0,0-24.52,1.28,81.29,81.29,0,0,1,10.59-18.68,145.23,145.23,0,0,1,36.32-.51c9,1,14.91,2.62,35.32,5,26.94,3.12,36.91,2.72,46.52.75a92.59,92.59,0,0,0,13.86-4A82,82,0,0,1,276.25,182.66Z"/><path id="Path_771" data-name="Path 771" class="cls-7" d="M282.53,213.24v1q0,3.89-.35,7.67c-.08.84-.17,1.67-.28,2.49,0,.42-.11.85-.16,1.26s-.11.85-.18,1.27c-.13.86-.28,1.7-.44,2.55-.28,1.47-.59,2.92-.94,4.34a476.63,476.63,0,0,1-57-5.28c-24.93-4.18-52.79-8.7-74.17-15.15a143.41,143.41,0,0,1,33.58-.17c6.18.71,10.92,1.68,19.89,3l2.56.36c.45.07.91.14,1.37.19.94.14,1.91.26,2.93.39,2.54.34,5.37.69,8.57,1,27,3.12,36.92,2.7,46.52.75a93.83,93.83,0,0,0,12.07-3.34l2.09-.77C280,214.3,281.31,213.76,282.53,213.24Z"/><path id="Path_772" data-name="Path 772" class="cls-7" d="M280.18,233.8l-.11.43c-5.41,1.73-10.58,3.09-15.48,4.14a133.53,133.53,0,0,1-39.42,2.69c-23.21-1.94-36.18-9.41-64.93-9.95a176,176,0,0,0-39.31,3.74h0c-.17-.61-.31-1.21-.45-1.83-.28-1.22-.54-2.46-.78-3.69a82.53,82.53,0,0,1-1.19-9.52,183,183,0,0,1,18.91-4.64c4-.79,7.93-1.37,11.64-1.8,21.38,6.45,49.24,11,74.17,15.15A476.63,476.63,0,0,0,280.18,233.8Z"/><path id="Path_773" data-name="Path 773" class="cls-7" d="M270.71,256.69c-1.18,2-2.45,3.87-3.8,5.73A82.39,82.39,0,0,1,249.62,280a127.56,127.56,0,0,1-24.09.27c-23.21-1.93-36.18-9.41-64.92-9.94a171.26,171.26,0,0,0-19.49.73,82.38,82.38,0,0,1-8.74-10.8c-.92-1.36-1.8-2.74-2.63-4.16A151.94,151.94,0,0,1,183,252.38c9,1,14.91,2.61,35.33,5,26.94,3.11,36.91,2.7,46.51.74Q267.9,257.48,270.71,256.69Z"/></g><g id="Group_797" data-name="Group 797"><path id="Path_783" data-name="Path 783" class="cls-8" d="M89.46,219.57a22.93,22.93,0,0,0-2.09,13l-1.76.39a2.38,2.38,0,0,1-3.79.84l-1.32.29a6.23,6.23,0,0,0-11.71,4h0c0,.1,0,.2.07.3a2.89,2.89,0,0,1,1.67-1.07l.29-.05a4.09,4.09,0,0,1,8-1.41h0a4.08,4.08,0,0,1-3.11,4.86h0a4.16,4.16,0,0,1-1.79,0,2.85,2.85,0,0,1-1.3,1.84,6.23,6.23,0,0,0,8.44-5.79l6.8-1.51A23,23,0,0,0,115.13,252c12.39-2.74,13.41-13.24,10.67-25.63-1.9-8.6-5.12-15.86-11-18.58a13.77,13.77,0,0,0-7.5-1,18.08,18.08,0,0,0-2.06.35A23,23,0,0,0,89.46,219.57Zm18.12,4.11.3.24.29.24h0a9,9,0,0,1,.81.82c.17.19.33.39.49.59a6.62,6.62,0,0,1,.44.64c.08.11.14.23.21.34a9.22,9.22,0,0,1,.76,1.66,7.91,7.91,0,0,1,.33,1.15c0,.11.05.22.07.33a3.26,3.26,0,0,1,0,.33l0,.16,0,.28s0,.06,0,.09,0,.21,0,.32v.07c0,.12,0,.23,0,.35v.36s0,0,0,0,0,.24,0,.36l0,.38,0,.24,0,.2a8.52,8.52,0,0,1-.17.85,1.6,1.6,0,0,1,0,.21c0,.09,0,.19-.08.28s-.07.23-.11.34a1.72,1.72,0,0,1-.07.21c0,.06,0,.13-.08.2a1.67,1.67,0,0,1-.08.2c0,.14-.11.27-.17.41l-.09.18-.22.41-.09.16-.11.19-.12.18a2.82,2.82,0,0,1-.24.36l-.13.18a7.79,7.79,0,0,1-.69.83l-.15.16a8.27,8.27,0,0,1-.81.75,9.47,9.47,0,0,1-2.94,1.65,9.72,9.72,0,0,1-9.87-2l-.16-.15-.15-.16a.75.75,0,0,1-.15-.16c-.11-.1-.2-.21-.3-.32l-.3-.37-.11-.15-.13-.18-.12-.16-.37-.59c-.07-.13-.15-.26-.22-.4a9.37,9.37,0,0,1-.54-1.26,10.86,10.86,0,0,1-.33-1.15c0-.11-.05-.23-.07-.35v0l-.06-.38c0-.13,0-.26,0-.39a2.56,2.56,0,0,1,0-.39h0a6.62,6.62,0,0,1,0-.77c0-.26,0-.52,0-.77s0-.23,0-.34.07-.45.11-.67,0-.22.08-.33.12-.44.19-.65a9.74,9.74,0,0,1,15.15-4.77Z"/><path id="Path_784" data-name="Path 784" class="cls-8" d="M110.88,228.21a9.74,9.74,0,1,1-18.37,6.47h0a9.73,9.73,0,0,1,5.95-12.42h0a9.73,9.73,0,0,1,12.42,5.94Z"/><path id="Path_785" data-name="Path 785" class="cls-9" d="M110.88,228.21a9.74,9.74,0,1,1-18.37,6.47h0a9.73,9.73,0,0,1,5.95-12.42h0a9.73,9.73,0,0,1,12.42,5.94Z"/><circle id="Ellipse_110" data-name="Ellipse 110" cx="105.4" cy="228.74" r="4.39"/><path id="Path_786" data-name="Path 786" class="cls-10" d="M114.86,237.82a3.06,3.06,0,0,0,3.57-1.19,3.3,3.3,0,0,0-.64-3.75,3.57,3.57,0,0,0-1.6-1"/><circle id="Ellipse_183" data-name="Ellipse 183" class="cls-11" cx="98.85" cy="246.69" r="1.56"/><path id="Path_787" data-name="Path 787" class="cls-11" d="M89.46,219.57a3.3,3.3,0,0,1-.45,6.3h0a3.3,3.3,0,0,1-1.53,0A23,23,0,0,1,89.46,219.57Z"/><circle id="Ellipse_184" data-name="Ellipse 184" class="cls-11" cx="112.97" cy="240.12" r="1.04"/><circle id="Ellipse_185" data-name="Ellipse 185" class="cls-12" cx="108.96" cy="245" r="3.25"/><circle id="Ellipse_186" data-name="Ellipse 186" class="cls-12" cx="102.37" cy="216.71" r="3.25"/><circle id="Ellipse_187" data-name="Ellipse 187" class="cls-11" cx="96.98" cy="214.71" r="1.04"/><circle id="Ellipse_188" data-name="Ellipse 188" class="cls-11" cx="120.57" cy="248.12" r="1.04"/><circle id="Ellipse_189" data-name="Ellipse 189" class="cls-11" cx="121.73" cy="226.24" r="0.91"/><path id="Path_788" data-name="Path 788" class="cls-11" d="M107.25,206.78a13.78,13.78,0,0,1,7.5,1,3.79,3.79,0,0,1-7.44.27A4,4,0,0,1,107.25,206.78Z"/><path id="Path_789" data-name="Path 789" class="cls-11" d="M70.53,237.36l.29-.05.06.36a4.08,4.08,0,0,0,3.08,3.1,2.85,2.85,0,0,1-1.3,1.84,6.21,6.21,0,0,1-3.8-4.18A2.89,2.89,0,0,1,70.53,237.36Z"/><path id="Path_790" data-name="Path 790" class="cls-11" d="M81.82,233.84l3.79-.84a2.38,2.38,0,0,1-3.79.84Z"/></g><path class="cls-13" d="M231.26,214.52a2.23,2.23,0,0,1,1.93,3.34l-15.27,26.43-15.26,26.43a2.22,2.22,0,0,1-3.85,0l-15.26-26.43-15.26-26.43a2.23,2.23,0,0,1,1.93-3.34h16.56A2.22,2.22,0,0,0,189,212.3V167.18a2.21,2.21,0,0,1,2.22-2.22h19a2.21,2.21,0,0,1,2.22,2.22V212.3a2.22,2.22,0,0,0,2.23,2.22Z"/><path class="cls-14" d="M284.42,188.78A13.33,13.33,0,0,0,271,201.56l-1.35,27.3a23.68,23.68,0,0,0,14.13,22.86,23.43,23.43,0,0,0,7.06,1.86c.42,0,.86.08,1.29.1h.14l57.1,2.83a13.14,13.14,0,0,0,1.3-26.25l-41.07-2A13.6,13.6,0,0,1,296.68,214l.57-11.43a13.46,13.46,0,0,0-.12-2.55A13.15,13.15,0,0,0,284.42,188.78Z"/><circle id="Ellipse_115" data-name="Ellipse 115" class="cls-9" cx="349.68" cy="231.49" r="6.99"/><circle id="Ellipse_111" data-name="Ellipse 111" class="cls-9" cx="347.8" cy="255.81" r="6.99"/><circle class="cls-14" cx="328.76" cy="249.75" r="2.86"/><circle class="cls-15" cx="324.83" cy="240.89" r="2.94"/><circle class="cls-15" cx="296.48" cy="233.14" r="1.97"/><circle class="cls-15" cx="358.1" cy="239.59" r="1.97"/><path class="cls-15" d="M287.87,247.27a3.94,3.94,0,0,0-4.13,3.74,4.18,4.18,0,0,0,0,.71,23.43,23.43,0,0,0,7.06,1.86,3.9,3.9,0,0,0,.79-2.18A4,4,0,0,0,287.87,247.27Z"/><circle class="cls-15" cx="333.86" cy="248.15" r="1"/><circle class="cls-16" cx="343.74" cy="255.66" r="2.49"/><circle class="cls-16" cx="346.56" cy="233.12" r="2.69"/><path class="cls-17" d="M328.18,232.68a17.48,17.48,0,0,0-5.66-5.47,13.34,13.34,0,0,0-12.06-.82,10.72,10.72,0,0,0-5.71,5.62"/><path class="cls-18" d="M334.24,248.32a7.27,7.27,0,0,0,2.68-4.16c.83-4-2.34-6.91-2.5-7"/><path class="cls-19" d="M334,247.89a6.84,6.84,0,0,0,2.32-3.86,7.63,7.63,0,0,0-2.13-6.51"/><path class="cls-17" d="M326.91,252.23a17.48,17.48,0,0,1-6.18,4.89,13.35,13.35,0,0,1-12.08-.37,10.71,10.71,0,0,1-5.12-6.16"/><path class="cls-20" d="M215.53,121.93a21.37,21.37,0,0,1-8,8.82l-.29.18a20.85,20.85,0,0,1-6.67,2.58l-.31.07a18.21,18.21,0,0,1-2.22.29l-.49,0c-.46,0-.93,0-1.38,0a21.33,21.33,0,0,1-5.45-.73c-.62-.17-1.24-.36-1.84-.59a21.52,21.52,0,0,1-10.59-8.49,29.52,29.52,0,0,0,5.88,2.18A43.27,43.27,0,0,0,210,124.79,29.79,29.79,0,0,0,215.53,121.93Z"/><path class="cls-21" d="M217.65,111.3a21.26,21.26,0,0,1-2.12,10.63,29.79,29.79,0,0,1-5.58,2.86,43.27,43.27,0,0,1-25.76,1.53,29.52,29.52,0,0,1-5.88-2.18,21.39,21.39,0,1,1,39.34-12.84Z"/><ellipse class="cls-9" cx="192.45" cy="101.33" rx="3.17" ry="2.07" transform="translate(-5.67 11.59) rotate(-3.4)"/><path class="cls-21" d="M217.15,128.84l3.31-.42a27,27,0,0,0,2.57-13.3c-1.12-13.71-14.19-19.26-15.34-19.72L206.06,99a25.8,25.8,0,0,1,5.28,3.34c2,1.69,6.07,5,7.65,10.86C220.87,120.19,218.14,126.72,217.15,128.84Z"/><ellipse class="cls-9" cx="198.78" cy="100.95" rx="3.17" ry="2.07" transform="translate(-5.64 11.97) rotate(-3.4)"/><path class="cls-21" d="M178.36,129.47l-3.33,0a27,27,0,0,1-4.14-12.9c-.51-13.75,11.82-20.8,12.91-21.4l2,3.37a25.56,25.56,0,0,0-4.85,3.94c-1.84,1.92-5.44,5.68-6.31,11.68C173.64,121.32,177.13,127.48,178.36,129.47Z"/><circle class="cls-21" cx="176.91" cy="130.61" r="4.4"/><path class="cls-22" d="M212.33,85.54c.51,8.47-7,15.81-16.66,16.39s-18-5.83-18.49-14.3A14.78,14.78,0,0,1,183.39,75a19.65,19.65,0,0,1,21.29-1.26A14.74,14.74,0,0,1,212.33,85.54Z"/><path class="cls-20" d="M204.2,65.69l.48,8.07A19.65,19.65,0,0,0,183.39,75L182.91,67a10.24,10.24,0,0,1,4.76-9.21,11,11,0,0,1,10.71-.64,10.46,10.46,0,0,1,4.1,3.54A10.11,10.11,0,0,1,204.2,65.69Z"/><circle class="cls-23" cx="187.59" cy="83" r="2.81"/><circle class="cls-23" cx="200.86" cy="82.43" r="2.81"/><path class="cls-24" d="M211.21,118a14.47,14.47,0,0,1-1.26,6.83,43.27,43.27,0,0,1-25.76,1.53,14.56,14.56,0,1,1,27-8.36Z"/><ellipse class="cls-9" cx="193.53" cy="66.05" rx="5.86" ry="4.06" transform="translate(-3.58 11.59) rotate(-3.4)"/><circle class="cls-25" cx="194.47" cy="67.33" r="2.34"/><circle class="cls-23" cx="196.86" cy="122.02" r="1.48"/><path class="cls-26" d="M193.05,58h0a1.78,1.78,0,0,1-1.88-1.71l-.37-10.4a1.44,1.44,0,0,1,1.35-1.52h0a1.43,1.43,0,0,1,1.51,1.35L194.72,56A1.78,1.78,0,0,1,193.05,58Z"/><path class="cls-26" d="M188.64,59h0a1.63,1.63,0,0,1-2.21-.74l-4.16-8.6a1.31,1.31,0,0,1,.57-1.77h0a1.32,1.32,0,0,1,1.77.57l4.7,8.29A1.62,1.62,0,0,1,188.64,59Z"/><path class="cls-26" d="M196.94,58.74l.15,0a1.55,1.55,0,0,0,2-.95l3.14-9.1a1.32,1.32,0,0,0-.78-1.69h0a1.31,1.31,0,0,0-1.69.77l-3.72,8.86A1.56,1.56,0,0,0,196.94,58.74Z"/><path class="cls-21" d="M207.23,138.79a2.49,2.49,0,0,1-3.63.7,5.64,5.64,0,0,1-1.73-1.93,9.22,9.22,0,0,1-1.05-2.88l-.23-1.17a20.85,20.85,0,0,0,6.67-2.58l.29-.18.48,2.54A7.42,7.42,0,0,1,207.23,138.79Z"/><path class="cls-21" d="M196.19,134l-.08,1.37a7.42,7.42,0,0,1-2.11,5.13,2.48,2.48,0,0,1-3.69-.2A5.5,5.5,0,0,1,189.1,138a9.41,9.41,0,0,1-.32-3.05l.12-2.28c.6.23,1.22.42,1.84.59A21.33,21.33,0,0,0,196.19,134Z"/><circle class="cls-21" cx="218.71" cy="129.46" r="4.4"/><path class="cls-27" d="M189.31,60.79c1.34-.08,2.9.5,4-.24,1.66-1.1,2.65-.24,3.77-.22"/></g></g></svg>