<svg xmlns="http://www.w3.org/2000/svg" width="64.945" height="37.468" viewBox="0 0 64.945 37.468">
  <defs>
    <style>
      .cls-1 {
        fill: #fff;
      }
    </style>
  </defs>
  <g id="envelope" transform="translate(0 -64)">
    <g id="Group_792" data-name="Group 792" transform="translate(0 64)">
      <g id="Group_791" data-name="Group 791">
        <path id="Path_857" data-name="Path 857" class="cls-1" d="M7.4,67.04c8.971,5.807,24.711,16.022,29.337,19.208a3.346,3.346,0,0,0,3.953,0c4.63-3.188,20.371-13.405,29.342-19.212a.881.881,0,0,0,.191-1.436A6.13,6.13,0,0,0,65.945,64H11.478A6.129,6.129,0,0,0,7.2,65.6.881.881,0,0,0,7.4,67.04Z" transform="translate(-6.239 -64)"/>
        <path id="Path_858" data-name="Path 858" class="cls-1" d="M64.16,126.509a1.676,1.676,0,0,0-1.443.15c-9.885,6.446-22.5,14.708-26.47,17.459a6.722,6.722,0,0,1-7.553,0c-4.231-2.932-18.4-12.2-26.467-17.458a1.686,1.686,0,0,0-1.443-.15,1.063,1.063,0,0,0-.785.944v26.174c0,2.3,2.427,4.163,5.412,4.163H59.533c2.985,0,5.412-1.867,5.412-4.163V127.453A1.062,1.062,0,0,0,64.16,126.509Z" transform="translate(0 -120.322)"/>
      </g>
    </g>
  </g>
</svg>
