<svg xmlns="http://www.w3.org/2000/svg" xmlns:xlink="http://www.w3.org/1999/xlink" width="1441.5" height="883.415" viewBox="0 0 1441.5 883.415">
  <defs>
    <style>
      .cls-1 {
        fill: #9eda9a;
      }

      .cls-2 {
        fill: url(#linear-gradient);
      }

      .cls-3, .cls-4 {
        fill: #fff;
        opacity: 0.1;
        isolation: isolate;
      }

      .cls-3 {
        stroke: #707070;
      }
    </style>
    <linearGradient id="linear-gradient" x1="0.901" y1="1.305" x2="0.097" y2="-0.088" gradientUnits="objectBoundingBox">
      <stop offset="0" stop-color="#24c0bb"/>
      <stop offset="1" stop-color="#12605e" stop-opacity="0"/>
    </linearGradient>
  </defs>
  <g id="Group_760" data-name="Group 760" transform="translate(-176 -2888)">
    <g id="Group_760-2" data-name="Group 760" transform="translate(2134.59 -68.285)">
      <path id="Path_855" data-name="Path 855" class="cls-1" d="M-518.59,3152.12v685.96l-480.39.54-959.61,1.08V3049.81l1-.53c15.25-8.05,203.41-104.33,451.83-90.72,259.24,14.2,314.72,171.18,589.16,147.4S-518.59,3152.12-518.59,3152.12Z"/>
      <path id="Path_856" data-name="Path 856" class="cls-2" d="M-517.59,3151.16v685.96h-1l-480.3.54-958.7,1.08V3048.85s193.6-105.45,452.83-91.25,314.72,171.18,589.16,147.4S-517.59,3151.16-517.59,3151.16Z"/>
      <path id="Path_857" data-name="Path 857" class="cls-3" d="M-645.37,3596.83c-21.47,39.29-25.16,78.81-10.39,111.3,14.56,32.03,45.17,54.68,86.19,63.75,19.04,4.21,36.13,6.77,50.98,7.64l1,.06v57.54h-1v.96l-480.39.54c.02-.31.06-.63.09-.96.66-6.61,1.74-16.31,3.41-28.35,1.91-13.7,4.2-27.65,6.8-41.49,3.26-17.3,7.03-34.44,11.21-50.97,10.64-42.08,23.95-80.44,39.56-114.02a429.081,429.081,0,0,1,30.3-54.83c5.82-8.83,11.95-17.27,18.2-25.08a281.2,281.2,0,0,1,20.4-22.83c34.23-34.23,87.01-59.16,156.88-74.11a711.028,711.028,0,0,1,89.27-12.81c25.38-2.11,51.97-3.18,79.02-3.18,9.1,0,17.58.12,25.25.31l1,.03v153.24c-.34-.1-.67-.2-1-.3-15.57-4.49-33.32-7.98-50.88-7.98C-604.77,3555.29-630.31,3569.26-645.37,3596.83Z"/>
      <path id="Subtraction_22" data-name="Subtraction 22" class="cls-4" d="M-518.59,3250.35c-1.15-.72-2.32-1.42-3.49-2.1-16.11-9.43-35.03-16.94-56.24-22.33a316.386,316.386,0,0,0-40.29-7.36,418.99,418.99,0,0,0-49.45-2.79,578.04,578.04,0,0,0-67.57,4.21c-23.19,2.75-50.34,4.14-80.7,4.14-50.92,0-112.11-3.89-181.86-11.55-60.73-6.68-127.9-16.2-199.68-28.3-31.71-5.35-64.4-11.21-97.14-17.44-30.17-5.74-60.57-11.81-90.35-18.05-67.61-14.16-116.34-25.83-145.31-33.13-12.47-3.14-25.99-5.9-40.17-8.2-13.45-2.18-27.82-4-42.72-5.42-27.3-2.59-57.36-3.9-89.33-3.9-32.36,0-67.18,1.34-103.51,3.98-29.06,2.11-59.15,5.05-89.41,8.74-25.32,3.09-46.64,6.21-61.78,8.59-.34.05-.67.11-1,.16v267.95c.33-.05.66-.1,1-.15,5.7-.84,12.34-1.74,19.85-2.65,16.69-2.01,34.29-3.6,52.31-4.75,22.54-1.43,45.84-2.16,69.24-2.16a1189.989,1189.989,0,0,1,145.78,9.08c28.25,3.51,56.73,8.07,84.65,13.57,30.41,5.99,60.94,13.24,90.74,21.55,43.66,12.17,80.7,20.82,113.25,26.45,31.45,5.44,58.92,8.09,83.98,8.09a314.115,314.115,0,0,0,46.66-3.36,314.855,314.855,0,0,0,42.14-9.36c27.41-8,54.43-19.35,85.71-32.48l.02-.01c35.14-14.76,74.97-31.48,127.46-48.76a649.723,649.723,0,0,1,69.58-18.48c22.73-4.76,46.99-8.72,72.12-11.77,43.93-5.33,91.66-8.03,141.85-8.03,28.94,0,58.92.9,89.08,2.68,24.14,1.42,48.46,3.41,72.28,5.9,12.22,1.28,23.08,2.56,32.3,3.74.34.04.67.08,1,.13v-85.81C-517.92,3250.76-518.25,3250.55-518.59,3250.35Zm-1045.42,26.2a37.122,37.122,0,0,1-13.74,26.14,45.766,45.766,0,0,1-15.32,7.93,72.528,72.528,0,0,1-21.22,2.9h-.01c-11.68,0-24.93-2.18-39.39-6.46-8.69-2.58-18.08-4.85-27.88-6.74-9.29-1.78-19.19-3.28-29.43-4.43a548.339,548.339,0,0,0-61.04-3.2c-21.81,0-45.17,1.08-69.46,3.2-19.43,1.7-39.48,4.06-59.6,7.03-30.34,4.47-51.65,8.99-56.49,10.04-.38.08-.66.14-.83.18l-.04.01V3203.44c.02,0,.32-.02.87-.06,4.83-.35,29.36-2.08,62.87-3.78,22.03-1.12,43.61-2.01,64.14-2.64,25.7-.8,49.87-1.2,71.84-1.2,55.93,0,98.11,2.58,125.37,7.67a100.281,100.281,0,0,1,31.06,11.14,83.923,83.923,0,0,1,22.25,18.05C-1568.51,3245.97-1562.66,3261.98-1564.01,3276.55Z"/>
    </g>
  </g>
</svg>
