<svg xmlns="http://www.w3.org/2000/svg" xmlns:xlink="http://www.w3.org/1999/xlink" width="1455.99" height="892.071" viewBox="0 0 1455.99 892.071">
  <defs>
    <linearGradient id="linear-gradient" x1="0.902" y1="-0.3" x2="0.121" y2="1.356" gradientUnits="objectBoundingBox">
      <stop offset="0" stop-color="#45b3da"/>
      <stop offset="1" stop-color="#235a6d" stop-opacity="0"/>
    </linearGradient>
  </defs>
  <g id="Group_787" data-name="Group 787" transform="translate(15.49 -4088.371)">
    <g id="Group_786" data-name="Group 786" transform="translate(168.37 942.34)">
      <path id="Path_859" data-name="Path 859" d="M1271.63,3342.93v693.1l-30.37.03h-.01l-415.6.47-758.6.85-196.14.22-54.27.06v-798.1s195.62-106.55,457.55-92.2,317.99,172.96,595.29,148.93S1271.63,3342.93,1271.63,3342.93Z" fill="#4e25a5"/>
      <path id="Path_860" data-name="Path 860" d="M1271.63,3342.93v693.1l-30.37.03h-.01l-415.6.47-758.6.85-196.14.22-54.27.06v-798.1s195.62-106.55,457.55-92.2,317.99,172.96,595.29,148.93S1271.63,3342.93,1271.63,3342.93Z" fill="url(#linear-gradient)"/>
      <path id="Path_861" data-name="Path 861" d="M67.05,4037.38l-196.14.22q2.985-2.82,5.87-5.73c32.5-32.8,44.29-63.87,35.05-92.34-7.14-21.97-20.3-33.11-39.11-33.11-18.9,0-40.09,11.22-56.08,21.98V3776.8c.98-.18,1.99-.37,3.02-.55,9.67-1.72,19.5-3.1,29.22-4.08a353.6,353.6,0,0,1,35.64-1.86c34.28,0,64.42,5.44,89.56,16.18a151.873,151.873,0,0,1,20.88,10.84,135.565,135.565,0,0,1,19.14,14.41,131.355,131.355,0,0,1,16.82,18.38,140.518,140.518,0,0,1,13.93,22.79,227.066,227.066,0,0,1,10.06,24.06,253.828,253.828,0,0,1,7.33,24.91,310.039,310.039,0,0,1,7.67,51.07C71.74,3979.25,70.78,4007.6,67.05,4037.38Z" fill="#fff" stroke="#707070" stroke-width="1" opacity="0.09" style="isolation: isolate"/>
      <path id="Subtraction_28" data-name="Subtraction 28" d="M215.33,3468.66a37.5,37.5,0,0,1-13.88,26.4,45.708,45.708,0,0,1-15.48,8.01,73.018,73.018,0,0,1-21.44,2.94h-.01c-11.8,0-25.19-2.2-39.8-6.53-8.79-2.61-18.27-4.9-28.17-6.8-9.39-1.81-19.4-3.32-29.74-4.49a552.359,552.359,0,0,0-61.67-3.22c-22.03,0-45.65,1.08-70.18,3.23-19.63,1.71-39.89,4.1-60.22,7.1-33.02,4.88-55.47,9.79-57.92,10.33l-.03.01V3394.78c.25-.02,26.7-1.97,64.4-3.88,22.25-1.13,44.06-2.02,64.8-2.67,25.96-.8,50.39-1.21,72.59-1.21,56.5,0,99.12,2.61,126.67,7.76a101.125,101.125,0,0,1,31.38,11.25,84.8,84.8,0,0,1,22.49,18.24C210.79,3437.76,216.7,3453.94,215.33,3468.66Zm1056.3,60.71c-9.32-1.19-20.3-2.49-32.64-3.78-24.07-2.51-48.64-4.52-73.03-5.95-30.47-1.8-60.76-2.71-90.01-2.71-50.71,0-98.93,2.73-143.32,8.11-25.39,3.08-49.91,7.08-72.87,11.9a656.135,656.135,0,0,0-70.3,18.67c-53.04,17.46-93.28,34.36-128.78,49.27l-.02.01c-31.61,13.27-58.9,24.73-86.61,32.82a309.764,309.764,0,0,1-89.73,12.85c-25.32,0-53.07-2.68-84.86-8.17-32.88-5.69-70.31-14.43-114.42-26.73-30.11-8.4-60.96-15.72-91.68-21.77-28.22-5.56-57-10.17-85.54-13.71A1200.753,1200.753,0,0,0-39.48,3571c-23.64,0-47.18.73-69.95,2.18-18.22,1.16-36,2.77-52.85,4.8-8.04.96-15.09,1.94-21.08,2.83V3310.07c15.36-2.42,37.28-5.64,63.44-8.83,30.57-3.73,60.97-6.7,90.34-8.84,36.71-2.67,71.89-4.02,104.58-4.02,32.31,0,62.68,1.32,90.26,3.94,15.06,1.42,29.58,3.26,43.17,5.46,14.33,2.33,27.98,5.11,40.58,8.29,29.28,7.38,78.51,19.17,146.83,33.48,30.09,6.3,60.8,12.44,91.29,18.24,33.08,6.29,66.1,12.22,98.16,17.62,72.51,12.23,140.4,21.85,201.74,28.59,70.49,7.75,132.31,11.67,183.76,11.67,30.68,0,58.11-1.4,81.54-4.18a585.8,585.8,0,0,1,68.27-4.26,425.665,425.665,0,0,1,49.97,2.82,319.425,319.425,0,0,1,40.71,7.44c21.43,5.44,40.55,13.04,56.82,22.56,1.19.69,2.37,1.4,3.53,2.12Z" fill="#fff" opacity="0.09" style="isolation: isolate"/>
      <path id="Path_862" data-name="Path 862" d="M1271.63,3672.49v148.43a156.278,156.278,0,0,0-21.95-1.63c-35.67,0-61.48,14.12-76.69,41.97-21.69,39.7-25.42,79.64-10.5,112.46,13.71,30.16,41.5,52.09,78.76,62.34l-415.6.47c.15-.83.3-1.66.46-2.49,3.29-17.47,7.1-34.8,11.33-51.51,10.75-42.51,24.2-81.27,39.97-115.2a433.037,433.037,0,0,1,30.61-55.4c5.88-8.92,12.07-17.45,18.39-25.34a285.3,285.3,0,0,1,20.62-23.07c34.58-34.58,87.91-59.77,158.51-74.88a717.924,717.924,0,0,1,90.2-12.94C1220.14,3673.66,1245.65,3672.59,1271.63,3672.49Z" fill="#fff" stroke="#707070" stroke-width="1" opacity="0.09" style="isolation: isolate"/>
    </g>
  </g>
</svg>
