<svg xmlns="http://www.w3.org/2000/svg" xmlns:xlink="http://www.w3.org/1999/xlink" width="800" height="610.503" viewBox="0 0 800 610.503">
  <defs>
    <linearGradient id="linear-gradient" x1="0.865" y1="1.082" x2="0.171" y2="-0.221" gradientUnits="objectBoundingBox">
      <stop offset="0" stop-color="#45b3da"/>
      <stop offset="1" stop-color="#235a6d" stop-opacity="0"/>
    </linearGradient>
  </defs>
  <g id="Group_820" data-name="Group 820" transform="translate(5543 984.825)">
    <g id="Group_819" data-name="Group 819" transform="translate(-4270.66 -2984.585)">
      <g id="Group_818" data-name="Group 818" transform="translate(-1272.34 1999.76)">
        <g id="Group_726" data-name="Group 726">
          <path id="Path_870" data-name="Path 870" d="M-472.34,1999.76v508.07c-43.452,29.59-97.131,54.086-157.921,71.69-67.884,19.668-144.637,30.743-225.9,30.743-173.335,0-326.126-50.4-416.179-127.021V1999.76Z" transform="translate(1272.34 -1999.76)" fill="#4e25a5"/>
          <path id="Path_871" data-name="Path 871" d="M-472.34,1999.76v508.07c-43.452,29.59-97.131,54.086-157.921,71.69-67.884,19.668-144.637,30.743-225.9,30.743-173.335,0-326.126-50.4-416.179-127.021V1999.76Z" transform="translate(1272.34 -1999.76)" opacity="0.76" fill="url(#linear-gradient)" style="isolation: isolate"/>
        </g>
      </g>
      <path id="Path_872" data-name="Path 872" d="M-472.34,2442.709v69.817c-43.452,29.863-97.131,54.586-157.921,72.353a278.784,278.784,0,0,1-101.657-37.157c-90.542-54.633-106.449-129.559-207.441-159.354-61.6-18.172-82.815,1.693-188.582-10.726a788.457,788.457,0,0,1-144.4-31.02v-71.939c8.542,3.892,18.331,7.921,29.585,12.557,38.177,15.721,63.075,25.964,78.761,6.9,13.711-16.671,16.606-51.146,8.32-75.08-10.322-29.833-34.228-32.361-66-53.628a209.6,209.6,0,0,1-26.019-20.655,260.237,260.237,0,0,1-24.643-26.378V1999.76h75.721c8.919,31.166,20.728,64.469,36.53,95.513,18.825,36.973,43.33,70.751,75.411,93.9,81.368,58.716,130-9.738,235.173,41.371,103.593,50.342,107.98,141.81,212.987,193.063C-574.74,2453.757-515.941,2451.543-472.34,2442.709Z" transform="translate(0 0)" fill="#fff" opacity="0.05"/>
      <path id="Path_873" data-name="Path 873" d="M-136.489,2067.6c3.573,14.165,27.377,8.731,53.9,30.084,21.686,17.461,16.916,30.059,40.739,49.514,4.406,3.6,13.369,10.918,23.19,16v62.344c-29.94-6.412-51.313-17.631-66.437-28.2-45.346-31.72-43.861-64.305-92.76-98.4-32.3-22.52-42.952-15.28-81.479-36.352-23.88-13.062-50.379-32.579-76.126-62.826h316.8v28.894c-28.3-14.66-63.867-13.833-88.373.088C-121.5,2036.958-139.88,2054.15-136.489,2067.6Z" transform="translate(-453.682)" fill="#fff" opacity="0.05"/>
    </g>
  </g>
</svg>
