<svg xmlns="http://www.w3.org/2000/svg" xmlns:xlink="http://www.w3.org/1999/xlink" width="1460.497" height="891.137" viewBox="0 0 1460.497 891.137">
  <defs>
    <linearGradient id="linear-gradient" x1="0.899" y1="1.311" x2="0.099" y2="-0.094" gradientUnits="objectBoundingBox">
      <stop offset="0" stop-color="#2cb1ab"/>
      <stop offset="1" stop-color="#134f4c" stop-opacity="0"/>
    </linearGradient>
    <linearGradient id="linear-gradient-2" x1="0.9" y1="1.307" x2="0.097" y2="-0.09" xlink:href="#linear-gradient"/>
  </defs>
  <g id="Group_836" data-name="Group 836" transform="translate(675.55 -2419.683)">
    <path id="Path_911" data-name="Path 911" d="M783.03,2615.51v685.96l-480.39.53-977.19,1.09h-1V2513.21l1-.53c5.4-2.81,32.62-16.63,76.65-32.73.14-.06.29-.11.43-.16,66.914-24.439,172.415-54.066,299.025-58.563l1-.034q4.715-.164,9.465-.283,19.86-.48,40.37-.09,6.075.12,12.21.33h.01q9.21.3,18.52.81c183.11,9.9,265.85,89.24,393.44,128.29a.736.736,0,0,0,.14.04c55.34,16.92,119.11,26.26,203.17,19.07C657.86,2545.57,783.03,2615.51,783.03,2615.51Z" fill="#98c985"/>
    <path id="Path_912" data-name="Path 912" d="M784.03,2614.55v685.97h-1l-480.3.53-977.28,1.08V2512.25s161.55-86.87,387.72-92.3q19.935-.48,40.51-.08c3.9.08,7.82.19,11.75.31.14.01.27.02.41.02q9.09.3,18.29.8c262.57,14.2,318.77,171.18,596.75,147.4S784.03,2614.55,784.03,2614.55Z" fill="url(#linear-gradient)"/>
    <path id="Path_913" data-name="Path 913" d="M656.25,3060.22c-21.46,39.29-25.15,78.82-10.39,111.3,14.56,32.04,45.17,54.68,86.19,63.75,19.04,4.21,36.13,6.77,50.98,7.65l1,.06v66.21h-1l-481.08.54c.11-1.41.33-4.04.69-7.73.03-.31.06-.63.09-.95.66-6.61,1.74-16.3,3.41-28.34,1.9-13.7,4.19-27.66,6.8-41.49,3.26-17.3,7.03-34.45,11.21-50.98,10.64-42.08,23.95-80.44,39.56-114.01a429.085,429.085,0,0,1,30.3-54.83c5.82-8.84,11.94-17.28,18.2-25.08a281.342,281.342,0,0,1,20.4-22.84c34.23-34.22,87.01-59.16,156.88-74.1a710.9,710.9,0,0,1,89.28-12.82c25.38-2.11,51.96-3.18,79.02-3.18,9.09,0,17.57.12,25.24.31l1,.03v153.24c-.34-.1-.67-.19-1-.29-15.57-4.5-33.32-7.99-50.88-7.99C696.85,3018.68,671.31,3032.66,656.25,3060.22Z" fill="#fff" stroke="#5d5d5d" stroke-width="1" opacity="0.1" style="isolation: isolate"/>
    <path id="Subtraction_17" data-name="Subtraction 17" d="M783.03,2714c-1.31-.81-2.63-1.59-3.96-2.36-16.3-9.43-35.46-16.95-56.94-22.33a323.869,323.869,0,0,0-40.78-7.36,429.626,429.626,0,0,0-50.07-2.79,592.655,592.655,0,0,0-68.41,4.21c-23.47,2.75-50.96,4.14-81.7,4.14-51.55,0-113.49-3.89-184.12-11.55-61.47-6.68-129.48-16.2-202.14-28.3-32.12-5.35-65.21-11.22-98.35-17.44-30.55-5.74-61.32-11.81-91.47-18.05-68.45-14.16-117.79-25.83-147.12-33.13-12.63-3.14-26.31-5.9-40.67-8.2-13.61-2.18-28.16-4-43.25-5.41-27.63-2.59-58.06-3.9-90.43-3.9-32.76,0-68.01,1.33-104.79,3.97-29.43,2.12-59.89,5.06-90.52,8.75-25.81,3.11-47.51,6.25-62.86,8.64-.34.05-.67.1-1,.15V2851c.33-.05.66-.1,1-.15,5.85-.86,12.68-1.78,20.42-2.7,16.89-2.01,34.7-3.61,52.95-4.76,22.82-1.43,46.41-2.16,70.1-2.16a1219.766,1219.766,0,0,1,147.59,9.09c28.59,3.5,57.42,8.07,85.7,13.57,30.78,5.98,61.69,13.23,91.86,21.54,44.19,12.18,81.69,20.83,114.65,26.46,31.84,5.44,59.66,8.08,85.03,8.08a320.446,320.446,0,0,0,47.23-3.36,322.437,322.437,0,0,0,42.67-9.36c27.76-8,55.11-19.35,86.78-32.48l.02-.01c35.57-14.76,75.89-31.48,129.03-48.76a661.443,661.443,0,0,1,70.45-18.48c23.01-4.76,47.57-8.72,73.01-11.77,44.47-5.33,92.79-8.03,143.6-8.03,29.31,0,59.65.9,90.19,2.68,24.44,1.42,49.06,3.41,73.17,5.9,12.56,1.29,23.71,2.6,33.13,3.79l1,.12v-85.59C783.7,2714.41,783.37,2714.2,783.03,2714Zm-1058.81,25.95a36.991,36.991,0,0,1-13.91,26.13,46.2,46.2,0,0,1-15.51,7.93,73.978,73.978,0,0,1-21.48,2.91h-.01c-11.83-.01-25.24-2.18-39.88-6.47-8.8-2.58-18.3-4.84-28.22-6.73-9.41-1.79-19.44-3.28-29.8-4.44a561.906,561.906,0,0,0-61.79-3.19c-22.08,0-45.74,1.07-70.32,3.19-19.67,1.7-39.97,4.07-60.34,7.04-31.42,4.58-53.28,9.19-57.51,10.11-.23.04-.41.08-.53.11l-.03.01V2666.83c.02,0,.21-.02.56-.04,4.02-.29,29.22-2.06,63.97-3.8,22.3-1.11,44.15-2,64.93-2.64,26.02-.8,50.49-1.2,72.73-1.2,56.62,0,99.32,2.59,126.93,7.68a102.215,102.215,0,0,1,31.43,11.13,84.838,84.838,0,0,1,22.53,18.06C-280.33,2709.37-274.41,2725.38-275.78,2739.95Z" fill="#fff" opacity="0.1" style="isolation: isolate"/>
    <path id="Path_914" data-name="Path 914" d="M783.03,2617.22v691.97l-481.08.54-976.5,1.09h-1v-796.8s.34-.18,1-.54c13.08-6.87,154.03-78.77,351.71-91.06,1.22-.08,2.45-.15,3.68-.22q3.585-.21,7.21-.39c1.15-.06,2.3-.12,3.45-.17,1.38-.06,2.75-.13,4.13-.18q2.955-.12,5.92-.23c3.47-.13,6.96-.23,10.47-.32q19.86-.48,40.37-.09,6.09.135,12.21.33h.01q9.21.315,18.52.82c262.57,14.32,318.77,172.68,596.75,148.69S783.03,2617.22,783.03,2617.22Z" fill="#98c985"/>
    <path id="Path_915" data-name="Path 915" d="M784.03,2616.47v692.72h-1l-481.08.54-976.5,1.09V2513.16s27.74-15.06,76.31-33.08c.25-.1.51-.2.77-.29,68.71-25.44,178.67-56.63,310.64-59.84q19.935-.48,40.51-.08c3.9.08,7.82.19,11.75.31.14.01.27.02.41.02q9.09.315,18.29.81c182.63,9.97,265.42,89.7,392.44,129.24a.736.736,0,0,0,.14.04c55.57,17.29,119.61,26.88,204.17,19.57,263.66-22.77,389.85,39.59,402.15,46.07C783.7,2616.28,784.03,2616.47,784.03,2616.47Z" fill="url(#linear-gradient-2)"/>
    <path id="Path_916" data-name="Path 916" d="M656.667,3060.72c-21.46,39.29-25.15,78.82-10.39,111.3,14.56,32.04,45.17,54.68,86.19,63.75,19.04,4.21,36.13,6.77,50.98,7.65l1,.06v66.21h-1l-481.08.54c.11-1.41.33-4.04.69-7.73.03-.31.06-.63.09-.95.66-6.61,1.74-16.3,3.41-28.34,1.9-13.7,4.19-27.66,6.8-41.49,3.26-17.3,7.03-34.45,11.21-50.98,10.64-42.08,23.95-80.44,39.56-114.01a429.085,429.085,0,0,1,30.3-54.83c5.82-8.84,11.94-17.28,18.2-25.08a281.33,281.33,0,0,1,20.4-22.84c34.23-34.22,87.01-59.16,156.88-74.1a710.9,710.9,0,0,1,89.28-12.82c25.38-2.11,51.96-3.18,79.02-3.18,9.09,0,17.57.12,25.24.31l1,.03v153.24c-.34-.1-.67-.19-1-.29-15.57-4.5-33.32-7.99-50.88-7.99C697.267,3019.18,671.727,3033.16,656.667,3060.72Z" fill="#fff" stroke="#5d5d5d" stroke-width="1" opacity="0.1" style="isolation: isolate"/>
    <path id="Subtraction_23" data-name="Subtraction 23" d="M783.03,2714c-1.31-.81-2.63-1.59-3.96-2.36-16.3-9.43-35.46-16.95-56.94-22.33a323.869,323.869,0,0,0-40.78-7.36,429.626,429.626,0,0,0-50.07-2.79,592.655,592.655,0,0,0-68.41,4.21c-23.47,2.75-50.96,4.14-81.7,4.14-51.55,0-113.49-3.89-184.12-11.55-61.47-6.68-129.48-16.2-202.14-28.3-32.12-5.35-65.21-11.22-98.35-17.44-30.55-5.74-61.32-11.81-91.47-18.05-68.45-14.16-117.79-25.83-147.12-33.13-12.63-3.14-26.31-5.9-40.67-8.2-13.61-2.18-28.16-4-43.25-5.41-27.63-2.59-58.06-3.9-90.43-3.9-32.76,0-68.01,1.33-104.79,3.97-29.43,2.12-59.89,5.06-90.52,8.75-25.81,3.11-47.51,6.25-62.86,8.64-.34.05-.67.1-1,.15V2851c.33-.05.66-.1,1-.15,5.85-.86,12.68-1.78,20.42-2.7,16.89-2.01,34.7-3.61,52.95-4.76,22.82-1.43,46.41-2.16,70.1-2.16a1219.766,1219.766,0,0,1,147.59,9.09c28.59,3.5,57.42,8.07,85.7,13.57,30.78,5.98,61.69,13.23,91.86,21.54,44.19,12.18,81.69,20.83,114.65,26.46,31.84,5.44,59.66,8.08,85.03,8.08a320.446,320.446,0,0,0,47.23-3.36,322.437,322.437,0,0,0,42.67-9.36c27.76-8,55.11-19.35,86.78-32.48l.02-.01c35.57-14.76,75.89-31.48,129.03-48.76a661.443,661.443,0,0,1,70.45-18.48c23.01-4.76,47.57-8.72,73.01-11.77,44.47-5.33,92.79-8.03,143.6-8.03,29.31,0,59.65.9,90.19,2.68,24.44,1.42,49.06,3.41,73.17,5.9,12.56,1.29,23.71,2.6,33.13,3.79l1,.12v-85.59C783.7,2714.41,783.37,2714.2,783.03,2714Zm-1058.81,25.95a36.991,36.991,0,0,1-13.91,26.13,46.2,46.2,0,0,1-15.51,7.93,73.978,73.978,0,0,1-21.48,2.91h-.01c-11.83-.01-25.24-2.18-39.88-6.47-8.8-2.58-18.3-4.84-28.22-6.73-9.41-1.79-19.44-3.28-29.8-4.44a561.906,561.906,0,0,0-61.79-3.19c-22.08,0-45.74,1.07-70.32,3.19-19.67,1.7-39.97,4.07-60.34,7.04-31.42,4.58-53.28,9.19-57.51,10.11-.23.04-.41.08-.53.11l-.03.01V2666.83c.02,0,.21-.02.56-.04,4.02-.29,29.22-2.06,63.97-3.8,22.3-1.11,44.15-2,64.93-2.64,26.02-.8,50.49-1.2,72.73-1.2,56.62,0,99.32,2.59,126.93,7.68a102.215,102.215,0,0,1,31.43,11.13,84.838,84.838,0,0,1,22.53,18.06C-280.33,2709.37-274.41,2725.38-275.78,2739.95Z" fill="#fff" opacity="0.1" style="isolation: isolate"/>
  </g>
</svg>
