<svg xmlns="http://www.w3.org/2000/svg" xmlns:xlink="http://www.w3.org/1999/xlink" width="1442.34" height="804.24" viewBox="0 0 1442.34 804.24">
  <defs>
    <style>
      .cls-1 {
        fill: #4e25a5;
      }

      .cls-2 {
        opacity: 0.76;
        isolation: isolate;
        fill: url(#linear-gradient);
      }

      .cls-3 {
        fill: #fff;
        opacity: 0.05;
      }
    </style>
    <linearGradient id="linear-gradient" x1="0.865" y1="1.082" x2="0.171" y2="-0.221" gradientUnits="objectBoundingBox">
      <stop offset="0" stop-color="#45b3da"/>
      <stop offset="1" stop-color="#235a6d" stop-opacity="0"/>
    </linearGradient>
  </defs>
  <g id="Group_752" data-name="Group 752" transform="translate(1272.34 -1999.76)">
    <g id="Group_751" data-name="Group 751">
      <g id="Group_726" data-name="Group 726">
        <path id="Path_851" data-name="Path 851" class="cls-1" d="M170,1999.76v669.3c-78.34,38.98-175.12,71.25-284.72,94.44C-237.11,2789.41-375.49,2804-522,2804c-312.51,0-587.98-66.39-750.34-167.33V1999.76Z"/>
        <path id="Path_852" data-name="Path 852" class="cls-2" d="M170,1999.76v669.3c-78.34,38.98-175.12,71.25-284.72,94.44C-237.11,2789.41-375.49,2804-522,2804c-312.51,0-587.98-66.39-750.34-167.33V1999.76Z"/>
      </g>
    </g>
    <path id="Path_853" data-name="Path 853" class="cls-3" d="M170,2577.93v91.13c-78.34,38.98-175.12,71.25-284.72,94.44-75.53-8.63-135.83-27.77-183.28-48.5-163.24-71.31-191.92-169.11-374-208-111.06-23.72-149.31,2.21-340-14a1898.167,1898.167,0,0,1-260.34-40.49v-93.9c15.4,5.08,33.05,10.34,53.34,16.39,68.83,20.52,113.72,33.89,142,9,24.72-21.76,29.94-66.76,15-98-18.61-38.94-61.71-42.24-119-70a385.2,385.2,0,0,1-46.91-26.96,417.95,417.95,0,0,1-44.43-34.43V1999.76h136.52c16.08,40.68,37.37,84.15,65.86,124.67,33.94,48.26,78.12,92.35,135.96,122.57,146.7,76.64,234.38-12.71,424,54,186.77,65.71,194.68,185.1,384,252C-14.62,2592.35,91.39,2589.46,170,2577.93Z"/>
    <path id="Path_854" data-name="Path 854" class="cls-3" d="M-18,2108c5.7,22.6,43.68,13.93,86,48,34.6,27.86,26.99,47.96,65,79,7.03,5.74,21.33,17.42,37,25.53V2360c-47.77-10.23-81.87-28.13-106-45-72.35-50.61-69.98-102.6-148-157-51.53-35.93-68.53-24.38-130-58-38.1-20.84-80.38-51.98-121.46-100.24H170v46.1c-45.15-23.39-101.9-22.07-141,.14C5.91,2059.11-23.41,2086.54-18,2108Z"/>
  </g>
</svg>
