<svg xmlns="http://www.w3.org/2000/svg" width="61.001" height="61.001" viewBox="0 0 61.001 61.001">
  <defs>
    <style>
      .cls-1 {
        fill: #fff;
      }
    </style>
  </defs>
  <g id="Group_744" data-name="Group 744" transform="translate(-553.625 -4663.002)">
    <path id="Subtraction_19" data-name="Subtraction 19" class="cls-1" d="M4020.5-13235a30.305,30.305,0,0,1-11.872-2.4,30.413,30.413,0,0,1-9.7-6.536,30.415,30.415,0,0,1-6.537-9.7,30.31,30.31,0,0,1-2.4-11.872,30.3,30.3,0,0,1,2.4-11.871,30.4,30.4,0,0,1,6.537-9.7,30.411,30.411,0,0,1,9.7-6.536,30.327,30.327,0,0,1,11.872-2.4,30.322,30.322,0,0,1,11.872,2.4,30.408,30.408,0,0,1,9.694,6.536,30.387,30.387,0,0,1,6.536,9.7,30.306,30.306,0,0,1,2.4,11.871,30.314,30.314,0,0,1-2.4,11.872,30.415,30.415,0,0,1-6.536,9.7,30.408,30.408,0,0,1-9.694,6.536A30.3,30.3,0,0,1,4020.5-13235Zm.183-47c-4.562,0-5.1.017-6.877.1a12.184,12.184,0,0,0-4.044.773,8.1,8.1,0,0,0-2.96,1.929,8.253,8.253,0,0,0-1.922,2.953,12.353,12.353,0,0,0-.778,4.048c-.083,1.793-.1,2.388-.1,6.884,0,4.459.019,5.058.1,6.874a12.3,12.3,0,0,0,.777,4.048,8.177,8.177,0,0,0,1.929,2.956,8.078,8.078,0,0,0,2.95,1.922,12.289,12.289,0,0,0,4.048.778c1.766.08,2.3.1,6.877.1s5.108-.017,6.874-.1a12.185,12.185,0,0,0,4.048-.778,8.542,8.542,0,0,0,4.882-4.878,12.282,12.282,0,0,0,.774-4.048c.081-1.8.1-2.392.1-6.874,0-4.535-.007-5.113-.087-6.877a12.2,12.2,0,0,0-.774-4.048,8.124,8.124,0,0,0-1.929-2.96,8.253,8.253,0,0,0-2.953-1.922,12.31,12.31,0,0,0-4.048-.774C4025.8-13281.98,4025.268-13282,4020.685-13282Zm.007,30.362c-4.372,0-4.959-.019-6.74-.1a9.165,9.165,0,0,1-3.093-.574,5.141,5.141,0,0,1-1.919-1.244,5.162,5.162,0,0,1-1.245-1.915,9.283,9.283,0,0,1-.574-3.1c-.074-1.709-.1-2.224-.1-6.741,0-4.359.019-4.947.1-6.736a9.248,9.248,0,0,1,.574-3.1,5.083,5.083,0,0,1,1.251-1.916,5.138,5.138,0,0,1,1.919-1.244,9.252,9.252,0,0,1,3.093-.574c1.719-.074,2.238-.1,6.74-.1s5.028.022,6.735.1a9.264,9.264,0,0,1,3.1.574,5.141,5.141,0,0,1,1.915,1.244,5.143,5.143,0,0,1,1.245,1.916,9.266,9.266,0,0,1,.574,3.1c.074,1.7.1,2.216.1,6.736s-.022,5.028-.1,6.734a9.207,9.207,0,0,1-.574,3.093,5.536,5.536,0,0,1-3.167,3.17,9.231,9.231,0,0,1-3.1.574C4025.643-13251.655,4025.056-13251.637,4020.691-13251.637Zm-.007-22.25a8.579,8.579,0,0,0-8.569,8.569,8.58,8.58,0,0,0,8.569,8.572,8.58,8.58,0,0,0,8.569-8.572A8.579,8.579,0,0,0,4020.685-13273.887Zm8.909-2.339a2,2,0,0,0-2,2,2,2,0,0,0,2,2,2,2,0,0,0,2-2A2,2,0,0,0,4029.594-13276.226Zm-8.909,16.467a5.565,5.565,0,0,1-5.559-5.559,5.564,5.564,0,0,1,5.559-5.556,5.564,5.564,0,0,1,5.559,5.556A5.565,5.565,0,0,1,4020.685-13259.759Z" transform="translate(-3436.375 17959.002)"/>
  </g>
</svg>
