<svg xmlns="http://www.w3.org/2000/svg" width="226.674" height="353.633" viewBox="0 0 226.674 353.633">
  <g id="Group_827" data-name="Group 827" transform="translate(-2209.116 1587.523)">
    <path id="Path_905" data-name="Path 905" d="M2435.79-1319.72v65.83a20.018,20.018,0,0,1-12,18.33,19.922,19.922,0,0,1-8,1.67H2252.81a101.7,101.7,0,0,1-3.44-17.96,101.575,101.575,0,0,1,5.43-44.74,101.306,101.306,0,0,1,8.12-17.35c.16-.27.32-.54.49-.81a101.189,101.189,0,0,1,14.49-18.86,102.149,102.149,0,0,1,62.94-30.36,102.092,102.092,0,0,1,59.81,12.22q4.08,2.235,7.94,4.87a101.969,101.969,0,0,1,18.63,16.24A99.645,99.645,0,0,1,2435.79-1319.72Z" fill="#ee818a"/>
    <ellipse id="Ellipse_219" data-name="Ellipse 219" cx="15.165" cy="9.904" rx="15.165" ry="9.904" transform="matrix(0.995, -0.101, 0.101, 0.995, 2314.446, -1323.447)" fill="#fff"/>
    <path id="Path_906" data-name="Path 906" d="M2435.79-1334.75v26.24a147.833,147.833,0,0,0-15.47-13.01,121.447,121.447,0,0,0-22.69-13.5c-1.06-.48-2.12-.95-3.19-1.4l6.21-15.33.86-2.13c1.11.4,4.49,1.65,9.27,3.91A141.838,141.838,0,0,1,2435.79-1334.75Z" fill="#ee818a"/>
    <ellipse id="Ellipse_220" data-name="Ellipse 220" cx="15.165" cy="9.904" rx="15.165" ry="9.904" transform="matrix(0.995, -0.101, 0.101, 0.995, 2344.623, -1326.51)" fill="#fff"/>
    <path id="Path_889" data-name="Path 889" d="M2247.581-1452.98l-15.947-.478c-8.048,12-20.111,33.619-22.206,60.868-5.04,65.62,52.52,101.67,57.613,104.734l10.4-15.708a121.455,121.455,0,0,1-22.406-19.75c-8.443-9.547-24.94-28.2-27.953-57.044C2223.473-1414.9,2241.32-1443.706,2247.581-1452.98Z" fill="#ee818a"/>
    <path id="Path_890" data-name="Path 890" d="M2422.387-1394.526c4.1,40.385-30.1,76.94-76.371,81.637s-87.117-24.246-91.216-64.627c-2.409-23.733,8.405-46.132,27.131-61.526a92.031,92.031,0,0,1,49.24-20.1,92.032,92.032,0,0,1,52.277,9.793C2404.884-1438.031,2419.978-1418.262,2422.387-1394.526Z" fill="#f6b2b5"/>
    <path id="Path_891" data-name="Path 891" d="M2379.545-1487.8l3.9,38.457a92.04,92.04,0,0,0-52.277-9.793,92.025,92.025,0,0,0-49.24,20.1l-3.9-38.457a49.065,49.065,0,0,1,20.912-45,52.541,52.541,0,0,1,51.078-5.185,49.922,49.922,0,0,1,20.28,16.083A48.183,48.183,0,0,1,2379.545-1487.8Z" fill="#c74976"/>
    <circle id="Ellipse_221" data-name="Ellipse 221" cx="13.457" cy="13.457" r="13.457" transform="translate(2290.148 -1415.206)" fill="#ce878a"/>
    <circle id="Ellipse_222" data-name="Ellipse 222" cx="13.457" cy="13.457" r="13.457" transform="translate(2353.468 -1420.602)" fill="#ce878a"/>
    <path id="Path_907" data-name="Path 907" d="M2423.79-1235.56a19.922,19.922,0,0,1-8,1.67H2284.54a69.174,69.174,0,0,1,9.57-33.71,69.525,69.525,0,0,1,53.05-34.06,69.511,69.511,0,0,1,58.81,22.69,69.43,69.43,0,0,1,17.53,39.57C2423.64-1238.12,2423.73-1236.84,2423.79-1235.56Z" fill="#f29ea3"/>
    <ellipse id="Ellipse_223" data-name="Ellipse 223" cx="28.035" cy="19.438" rx="28.035" ry="19.438" transform="matrix(0.995, -0.101, 0.101, 0.995, 2298.788, -1500.451)" fill="#fff"/>
    <circle id="Ellipse_224" data-name="Ellipse 224" cx="11.214" cy="11.214" r="11.214" transform="translate(2317.429 -1495.158)" fill="#294e85"/>
    <path id="Path_893" data-name="Path 893" d="M2324.729-1522.507h0a8.5,8.5,0,0,1-9.315-7.594c-.007-.067-.013-.134-.018-.2l-3.867-49.668a6.859,6.859,0,0,1,6.131-7.517h0a6.858,6.858,0,0,1,7.514,6.132h0l7.1,49.18a8.5,8.5,0,0,1-7.2,9.626C2324.963-1522.533,2324.846-1522.519,2324.729-1522.507Z" fill="#6daba2"/>
    <path id="Path_894" data-name="Path 894" d="M2303.857-1516.471h0a7.8,7.8,0,0,1-10.63-2.942c-.027-.049-.055-.1-.081-.148l-21.62-40.265a6.29,6.29,0,0,1,2.358-8.577l.007,0h0a6.291,6.291,0,0,1,8.575,2.367v0l24.151,38.656a7.8,7.8,0,0,1-2.484,10.746C2304.043-1516.579,2303.95-1516.524,2303.857-1516.471Z" fill="#6daba2"/>
    <path id="Path_895" data-name="Path 895" d="M2343.445-1519.582l.727.237a7.426,7.426,0,0,0,9.355-4.77l.051-.163,13.2-44.151a6.291,6.291,0,0,0-4.04-7.925h0a6.291,6.291,0,0,0-7.929,4.035l0,.006-16.027,43.084a7.423,7.423,0,0,0,4.372,9.544C2343.246-1519.649,2343.345-1519.614,2343.445-1519.582Z" fill="#6daba2"/>
    <path id="Path_898" data-name="Path 898" d="M2307.41-1508.243c6.389-.649,13.963,1.822,19.164-1.945,7.708-5.583,12.592-1.689,17.984-1.826" fill="none" stroke="#3d1f0f" stroke-linecap="round" stroke-miterlimit="9.998" stroke-width="2"/>
    <circle id="Ellipse_227" data-name="Ellipse 227" cx="21.026" cy="21.026" r="21.026" transform="translate(2220.41 -1480.271)" fill="#ee818a"/>
  </g>
</svg>
