<svg xmlns="http://www.w3.org/2000/svg" xmlns:xlink="http://www.w3.org/1999/xlink" width="195.133" height="195.134" viewBox="0 0 195.133 195.134">
  <defs>
    <style>
      .cls-1 {
        fill: #4e25a5;
      }

      .cls-2, .cls-3 {
        opacity: 0.45;
      }

      .cls-2 {
        fill: url(#linear-gradient);
      }

      .cls-3, .cls-9 {
        fill: #ccc;
      }

      .cls-3 {
        isolation: isolate;
      }

      .cls-4 {
        fill: #b3b3b3;
      }

      .cls-5, .cls-7, .cls-8 {
        fill: #ecffff;
      }

      .cls-5 {
        opacity: 0.36;
      }

      .cls-11, .cls-6 {
        fill: #4c82de;
      }

      .cls-7 {
        opacity: 0.58;
      }

      .cls-8 {
        opacity: 0.42;
      }

      .cls-10 {
        fill: #fff;
      }

      .cls-11 {
        opacity: 0.5;
      }

      .cls-12 {
        filter: url(#Ellipse_134);
      }
    </style>
    <filter id="Ellipse_134" x="0" y="0" width="195.133" height="195.134" filterUnits="userSpaceOnUse">
      <feOffset dy="6" input="SourceAlpha"/>
      <feGaussianBlur stdDeviation="3" result="blur"/>
      <feFlood flood-opacity="0.161"/>
      <feComposite operator="in" in2="blur"/>
      <feComposite in="SourceGraphic"/>
    </filter>
    <linearGradient id="linear-gradient" x1="0.202" y1="0.034" x2="1.323" y2="1.257" gradientUnits="objectBoundingBox">
      <stop offset="0" stop-color="#45b3da"/>
      <stop offset="1" stop-color="#44195d" stop-opacity="0"/>
    </linearGradient>
  </defs>
  <g id="Group_728" data-name="Group 728" transform="translate(-329 -1054.922)">
    <g id="Group_660" data-name="Group 660" transform="translate(338 1057.922)">
      <g class="cls-12" transform="matrix(1, 0, 0, 1, -9, -3)">
        <circle id="Ellipse_134-2" data-name="Ellipse 134" class="cls-1" cx="88.567" cy="88.567" r="88.567" transform="translate(9 3)"/>
      </g>
      <circle id="Ellipse_142" data-name="Ellipse 142" class="cls-2" cx="88.567" cy="88.567" r="88.567" transform="translate(0 0)"/>
    </g>
    <g id="Group_683" data-name="Group 683" transform="translate(54.154 955.503)">
      <path id="Path_669" data-name="Path 669" class="cls-3" d="M330.771,215.681v.17h79.65v-.17Z"/>
      <path id="Path_670" data-name="Path 670" class="cls-4" d="M412.65,217.351a5.312,5.312,0,0,1-1.24,2,5.178,5.178,0,0,1-3.67,1.52H334.56a5.191,5.191,0,0,1-4.92-3.52,1.253,1.253,0,0,1,1.17-1.67h80.67A1.253,1.253,0,0,1,412.65,217.351Z"/>
      <path id="Path_671" data-name="Path 671" class="cls-5" d="M306.116,155.481a2.268,2.268,0,1,0,2.265,2.266A2.267,2.267,0,0,0,306.116,155.481Zm0,4a1.737,1.737,0,1,1,1.735-1.739A1.741,1.741,0,0,1,306.116,159.486Z"/>
      <path id="Path_672" data-name="Path 672" class="cls-5" d="M364.611,129.057a1.5,1.5,0,1,0,1.5,1.5A1.5,1.5,0,0,0,364.611,129.057Zm0,2.65a1.149,1.149,0,1,1,1.149-1.151A1.151,1.151,0,0,1,364.611,131.707Z"/>
      <path id="Path_673" data-name="Path 673" class="cls-5" d="M440.471,184.951a2.27,2.27,0,1,0,2.26,2.27A2.268,2.268,0,0,0,440.471,184.951Zm0,4.01a1.74,1.74,0,1,1,1.73-1.74A1.741,1.741,0,0,1,440.471,188.961Z"/>
      <path id="Path_674" data-name="Path 674" class="cls-6" d="M445.785,242.277a2.268,2.268,0,1,0,2.266,2.266A2.267,2.267,0,0,0,445.785,242.277Zm0,4.005a1.737,1.737,0,1,1,1.736-1.739A1.74,1.74,0,0,1,445.785,246.282Z"/>
      <rect id="Rectangle_595" data-name="Rectangle 595" class="cls-7" width="3.867" height="3.867" transform="translate(310.811 189.157) rotate(-45)"/>
      <rect id="Rectangle_596" data-name="Rectangle 596" class="cls-8" width="2.51" height="2.51" transform="translate(311.771 189.157) rotate(-45)"/>
      <rect id="Rectangle_597" data-name="Rectangle 597" class="cls-7" width="2.078" height="2.078" transform="translate(354.521 237.422) rotate(-45)"/>
      <rect id="Rectangle_598" data-name="Rectangle 598" class="cls-8" width="1.349" height="1.349" transform="translate(355.037 237.422) rotate(-45)"/>
      <rect id="Rectangle_599" data-name="Rectangle 599" class="cls-7" width="3.867" height="3.867" transform="translate(409.501 144.216) rotate(-45)"/>
      <rect id="Rectangle_600" data-name="Rectangle 600" class="cls-8" width="2.51" height="2.51" transform="translate(410.461 144.216) rotate(-45)"/>
      <path id="Path_675" data-name="Path 675" class="cls-6" d="M456.039,243.763a1.134,1.134,0,1,0,1.134,1.134A1.134,1.134,0,0,0,456.039,243.763Zm0,2a.869.869,0,1,1,.869-.87A.871.871,0,0,1,456.039,245.767Z"/>
      <path id="Rectangle_601" data-name="Rectangle 601" class="cls-9" d="M4.233,0H68.886a4.233,4.233,0,0,1,4.233,4.233V45.311a0,0,0,0,1,0,0H0a0,0,0,0,1,0,0V4.233A4.233,4.233,0,0,1,4.233,0Z" transform="translate(334.586 170.369)"/>
      <path id="Rectangle_602" data-name="Rectangle 602" class="cls-10" d="M3.419,0H66.473a3.419,3.419,0,0,1,3.419,3.419v39.1a0,0,0,0,1,0,0H0a0,0,0,0,1,0,0V3.419A3.419,3.419,0,0,1,3.419,0Z" transform="translate(336.309 172.167)"/>
      <rect id="Rectangle_603" data-name="Rectangle 603" class="cls-6" width="20.769" height="3.812" rx="1.875" transform="translate(360.87 204.842)"/>
      <rect id="Rectangle_604" data-name="Rectangle 604" class="cls-11" width="20.769" height="3.812" rx="1.875" transform="translate(342.69 179.797)"/>
      <rect id="Rectangle_605" data-name="Rectangle 605" class="cls-11" width="20.769" height="3.812" rx="1.875" transform="translate(342.69 185.315)"/>
      <g id="Group_682" data-name="Group 682">
        <circle id="Ellipse_145" data-name="Ellipse 145" class="cls-6" cx="17.004" cy="17.004" r="17.004" transform="translate(384.39 157.045)"/>
        <path id="Path_676" data-name="Path 676" class="cls-10" d="M404.09,169.7l5.028,3.044a1.774,1.774,0,0,1-.064,3.073l-5.151,2.833-5.151,2.832a1.774,1.774,0,0,1-2.629-1.591l.123-5.878.122-5.877a1.774,1.774,0,0,1,2.693-1.481Z"/>
      </g>
    </g>
  </g>
</svg>
