<svg xmlns="http://www.w3.org/2000/svg" width="65.443" height="65.443" viewBox="0 0 65.443 65.443">
  <defs>
    <style>
      .cls-1, .cls-2 {
        fill: #fff;
      }

      .cls-1 {
        opacity: 0.03;
      }

      .cls-2 {
        opacity: 0.02;
      }

      .cls-3 {
        fill: #b986ee;
      }

      .cls-4 {
        fill: #c194f0;
      }

      .cls-5 {
        fill: #9db5ff;
        opacity: 0.54;
      }
    </style>
  </defs>
  <g id="Group_721" data-name="Group 721" transform="translate(42.93 1058.817)">
    <path id="Path_761" data-name="Path 761" class="cls-1" d="M13.584-1025.037A23.213,23.213,0,0,0-9.63-1001.823a23.213,23.213,0,0,0,23.214,23.212A23.212,23.212,0,0,0,36.8-1001.823,23.213,23.213,0,0,0,13.584-1025.037Zm-15.91,16.813a36.266,36.266,0,0,1,5.137-.267c6.021.113,8.737,1.678,13.6,2.083a29.947,29.947,0,0,0,13.095-1.982,17.2,17.2,0,0,1,1.315,6.4v.205c0,.543-.025,1.078-.073,1.607-.017.174-.037.349-.059.521-.011.087-.023.177-.034.265s-.023.177-.037.265c-.028.18-.059.357-.093.535-.059.307-.124.611-.2.909a99.629,99.629,0,0,1-11.93-1.106,136.337,136.337,0,0,1-15.535-3.172q-.853-.258-1.635-.535c-2.567-.912-3.927-1.45-4.628-1.745.065-.459.149-.915.251-1.362q.177-.777.422-1.526C-2.607-1007.5-2.472-1007.863-2.325-1008.224Z" transform="translate(-23.926 -24.271)"/>
    <path id="Path_762" data-name="Path 762" class="cls-2" d="M-10.21-1058.817a32.722,32.722,0,0,0-32.72,32.723,32.72,32.72,0,0,0,32.72,32.72,32.722,32.722,0,0,0,32.723-32.72A32.724,32.724,0,0,0-10.21-1058.817ZM-26.252-1032.5a36.267,36.267,0,0,1,5.137-.267c6.021.113,8.737,1.678,13.6,2.083a29.943,29.943,0,0,0,13.095-1.982,17.2,17.2,0,0,1,1.315,6.4v.205c0,.543-.025,1.078-.073,1.607-.017.175-.037.349-.059.521l-.034.265c-.011.09-.023.177-.037.265-.028.18-.059.357-.093.535-.059.307-.124.611-.2.909a99.659,99.659,0,0,1-11.93-1.106,136.337,136.337,0,0,1-15.535-3.172q-.853-.257-1.635-.535c-2.567-.912-3.927-1.449-4.628-1.745.065-.459.149-.915.251-1.363q.177-.777.422-1.526C-26.533-1031.769-26.4-1032.135-26.252-1032.5Z" transform="translate(0 0)"/>
    <path id="Path_763" data-name="Path 763" class="cls-3" d="M24.2-996.669a17.171,17.171,0,0,1,13.73-6.841,17.173,17.173,0,0,1,13.92,7.1,19.434,19.434,0,0,1-2.9.835c-2.013.41-4.1.5-9.743-.156-4.278-.495-5.515-.827-7.4-1.042A30.374,30.374,0,0,0,24.2-996.669Z" transform="translate(-48.232 -39.739)"/>
    <path id="Path_764" data-name="Path 764" class="cls-3" d="M46.721-959.769c-.256.11-.529.222-.816.329q-.215.08-.439.16a19.429,19.429,0,0,1-2.528.7c-2.01.408-4.1.5-9.742-.158-.67-.076-1.264-.149-1.8-.22-.214-.028-.417-.053-.614-.082-.1-.011-.191-.025-.287-.039-.186-.025-.363-.051-.535-.076-1.88-.273-2.871-.476-4.166-.625a30.1,30.1,0,0,0-7.034.037q-.853-.258-1.635-.535c-2.567-.912-3.927-1.45-4.628-1.745.065-.459.149-.915.251-1.362q.177-.777.422-1.526c.121-.372.256-.738.4-1.1a36.266,36.266,0,0,1,5.137-.267c6.021.113,8.737,1.678,13.6,2.083a29.949,29.949,0,0,0,13.095-1.982A17.2,17.2,0,0,1,46.721-959.769Z" transform="translate(-39.827 -66.488)"/>
    <path id="Path_765" data-name="Path 765" class="cls-3" d="M16.682-949.4q.781.279,1.635.535c-.777.09-1.59.211-2.438.377a38.408,38.408,0,0,0-3.961.971c-.025-.386-.039-.777-.039-1.171,0-.436.017-.87.048-1.3.028-.391.07-.777.127-1.16C12.755-950.851,14.115-950.314,16.682-949.4Z" transform="translate(-39.382 -77.362)"/>
    <path id="Path_766" data-name="Path 766" class="cls-3" d="M33.954-939.875a99.644,99.644,0,0,0,11.93,1.106c-.006.031-.011.059-.02.09-.084.332-.177.659-.279.982a17.028,17.028,0,0,1-1.686,3.721c-.245.411-.512.811-.794,1.2a17.306,17.306,0,0,1-3.62,3.676,16.718,16.718,0,0,1-1.723,1.137h0a17.1,17.1,0,0,1-8.58,2.291,17.134,17.134,0,0,1-11.454-4.369q-.5-.448-.968-.934a17.05,17.05,0,0,1-1.827-2.263c-.191-.284-.377-.574-.552-.87a17.072,17.072,0,0,1-1.849-4.442c-.034-.127-.065-.253-.1-.383-.059-.256-.113-.515-.163-.774a17.208,17.208,0,0,1-.251-1.993,38.407,38.407,0,0,1,3.961-.971c.847-.166,1.661-.287,2.438-.377A136.284,136.284,0,0,0,33.954-939.875Z" transform="translate(-39.482 -83.182)"/>
    <path id="Path_767" data-name="Path 767" class="cls-3" d="M132.32-930.168c.073-.3.138-.6.2-.909-.056.307-.121.611-.194.909Z" transform="translate(-125.919 -91.783)"/>
    <path id="Path_768" data-name="Path 768" class="cls-3" d="M133.02-932.442c.034-.177.065-.355.093-.535-.028.18-.059.357-.09.535Z" transform="translate(-126.422 -90.417)"/>
    <path id="Path_769" data-name="Path 769" class="cls-3" d="M133.573-936.707c-.017.175-.037.349-.056.521-.011.087-.023.177-.037.265l.034-.265C133.536-936.358,133.556-936.532,133.573-936.707Z" transform="translate(-126.753 -87.737)"/>
    <path id="Path_770" data-name="Path 770" class="cls-4" d="M48.151-976.214a29.947,29.947,0,0,1-13.095,1.982c-4.861-.405-7.578-1.97-13.6-2.083a36.266,36.266,0,0,0-5.137.267,17.064,17.064,0,0,1,2.218-3.913,30.434,30.434,0,0,1,7.609-.107c1.883.217,3.122.549,7.4,1.042,5.641.653,7.73.569,9.742.158a19.518,19.518,0,0,0,2.9-.836A17.181,17.181,0,0,1,48.151-976.214Z" transform="translate(-42.572 -56.447)"/>
    <path id="Path_771" data-name="Path 771" class="cls-4" d="M62.707-943.648v.205c0,.543-.025,1.078-.073,1.607-.017.175-.037.349-.059.521l-.034.265c-.011.09-.023.177-.037.265-.028.18-.059.357-.093.535-.059.307-.124.611-.2.909a99.644,99.644,0,0,1-11.93-1.106A136.284,136.284,0,0,1,34.75-943.62a30.111,30.111,0,0,1,7.034-.037c1.295.149,2.286.352,4.166.625.172.025.349.051.535.076.1.014.191.028.287.039.2.028.4.053.614.082.532.07,1.126.144,1.8.22,5.644.653,7.733.566,9.742.158a19.439,19.439,0,0,0,2.528-.7q.224-.08.439-.16C62.178-943.426,62.451-943.538,62.707-943.648Z" transform="translate(-55.814 -82.609)"/>
    <path id="Path_772" data-name="Path 772" class="cls-4" d="M45.883-938.768c-.008.031-.014.059-.023.09-1.134.363-2.215.647-3.243.867a27.988,27.988,0,0,1-8.256.563c-4.861-.405-7.578-1.97-13.6-2.083a36.774,36.774,0,0,0-8.234.782h0c-.034-.127-.065-.253-.093-.383-.059-.256-.113-.515-.163-.774a17.208,17.208,0,0,1-.251-1.993,38.407,38.407,0,0,1,3.961-.971c.847-.166,1.661-.287,2.438-.377a136.284,136.284,0,0,0,15.535,3.172A99.644,99.644,0,0,0,45.883-938.768Z" transform="translate(-39.482 -83.182)"/>
    <path id="Path_773" data-name="Path 773" class="cls-4" d="M49.919-913.6q-.371.617-.795,1.2a17.306,17.306,0,0,1-3.621,3.676,26.9,26.9,0,0,1-5.046.056c-4.861-.406-7.577-1.97-13.6-2.084a36.027,36.027,0,0,0-4.08.154,17.261,17.261,0,0,1-1.829-2.263c-.192-.285-.377-.574-.552-.871a31.85,31.85,0,0,1,11.15-.771c1.883.216,3.122.547,7.4,1.042,5.643.652,7.731.566,9.742.156C49.116-913.4,49.526-913.5,49.919-913.6Z" transform="translate(-45.501 -103.552)"/>
    <path id="Path_774" data-name="Path 774" class="cls-5" d="M43.4-951.94c-.259.659-.7.963-2.227,1.078q-.992,0-1.976-.025c-1-.025-1.987-.065-2.967-.115a107.837,107.837,0,0,1-26.637-4.859c-1.25-.414-2.311-.8-3.15-1.146-.29-.118-.557-.236-.8-.352-4.211-1.965-2.083-3.282-1.061-3.671a6.133,6.133,0,0,1,1.861-.377q-.245.747-.422,1.526a4.055,4.055,0,0,0-.664.13c-1.433.4-.287.912-.287.912a7.081,7.081,0,0,0,.7.321c.7.3,2.06.833,4.628,1.745q.781.279,1.635.535a136.284,136.284,0,0,0,15.535,3.172,99.629,99.629,0,0,0,11.929,1.106h0a15.594,15.594,0,0,0,1.745.042c1.238-.232-.68-.63-.68-.63l-.868-.321h0c.034-.177.065-.355.093-.535.014-.087.025-.175.037-.265l.034-.265h0a21.441,21.441,0,0,1,2.486.8C43.514-952.644,43.424-952.011,43.4-951.94Z" transform="translate(-33.091 -69.99)"/>
  </g>
</svg>
