<svg xmlns="http://www.w3.org/2000/svg" xmlns:xlink="http://www.w3.org/1999/xlink" width="195.133" height="195.134" viewBox="0 0 195.133 195.134">
  <defs>
    <style>
      .cls-1 {
        fill: #9eda9a;
      }

      .cls-2 {
        fill: url(#linear-gradient);
      }

      .cls-3 {
        fill: #b3b3b3;
      }

      .cls-4 {
        fill: #ccc;
      }

      .cls-5 {
        fill: #fff;
      }

      .cls-10, .cls-6 {
        fill: #47bf82;
      }

      .cls-6 {
        opacity: 0.5;
      }

      .cls-7, .cls-8 {
        fill: #ecffff;
      }

      .cls-7 {
        opacity: 0.36;
      }

      .cls-8 {
        opacity: 0.42;
      }

      .cls-9 {
        fill: none;
        stroke: #47bf82;
        stroke-linecap: round;
        stroke-miterlimit: 10;
        stroke-width: 2px;
      }

      .cls-11 {
        filter: url(#Ellipse_133);
      }
    </style>
    <filter id="Ellipse_133" x="0" y="0" width="195.133" height="195.134" filterUnits="userSpaceOnUse">
      <feOffset dy="6" input="SourceAlpha"/>
      <feGaussianBlur stdDeviation="3" result="blur"/>
      <feFlood flood-opacity="0.161"/>
      <feComposite operator="in" in2="blur"/>
      <feComposite in="SourceGraphic"/>
    </filter>
    <linearGradient id="linear-gradient" x1="0.231" y1="0.047" x2="1.425" y2="1" gradientUnits="objectBoundingBox">
      <stop offset="0" stop-color="#b8ffb4"/>
      <stop offset="1" stop-color="#5c805a" stop-opacity="0"/>
    </linearGradient>
  </defs>
  <g id="Group_742" data-name="Group 742" transform="translate(-915.867 -3309.418)">
    <g id="Group_681" data-name="Group 681" transform="translate(923.972 3312.418)">
      <g class="cls-11" transform="matrix(1, 0, 0, 1, -8.11, -3)">
        <circle id="Ellipse_133-2" data-name="Ellipse 133" class="cls-1" cx="88.567" cy="88.567" r="88.567" transform="translate(9 3)"/>
      </g>
      <circle id="Ellipse_144" data-name="Ellipse 144" class="cls-2" cx="88.567" cy="88.567" r="88.567" transform="translate(0 0)"/>
    </g>
    <g id="Group_697" data-name="Group 697" transform="translate(432.895 2957.45)">
      <path id="Path_713" data-name="Path 713" class="cls-3" d="M627.65,449.985a3.753,3.753,0,0,1-.876,1.413,3.656,3.656,0,0,1-2.592,1.073h-51.69a3.667,3.667,0,0,1-3.475-2.486.886.886,0,0,1,.827-1.18h56.98A.885.885,0,0,1,627.65,449.985Z"/>
      <path id="Rectangle_650" data-name="Rectangle 650" class="cls-4" d="M4.233,0H47.413a4.233,4.233,0,0,1,4.233,4.233V32.005a0,0,0,0,1,0,0H0a0,0,0,0,1,0,0V4.233A4.233,4.233,0,0,1,4.233,0Z" transform="translate(572.511 416.8)"/>
      <path id="Rectangle_651" data-name="Rectangle 651" class="cls-5" d="M3.419,0H45.948a3.419,3.419,0,0,1,3.419,3.419V30.029a0,0,0,0,1,0,0H0a0,0,0,0,1,0,0V3.419A3.419,3.419,0,0,1,3.419,0Z" transform="translate(573.728 418.07)"/>
      <path id="Path_714" data-name="Path 714" class="cls-3" d="M608.347,482.985a5.312,5.312,0,0,1-1.24,2,5.178,5.178,0,0,1-3.67,1.52h-73.18a5.191,5.191,0,0,1-4.92-3.52,1.253,1.253,0,0,1,1.17-1.67h80.67A1.253,1.253,0,0,1,608.347,482.985Z"/>
      <path id="Rectangle_652" data-name="Rectangle 652" class="cls-4" d="M4.233,0H68.886a4.233,4.233,0,0,1,4.233,4.233V45.311a0,0,0,0,1,0,0H0a0,0,0,0,1,0,0V4.233A4.233,4.233,0,0,1,4.233,0Z" transform="translate(530.283 436.003)"/>
      <path id="Rectangle_653" data-name="Rectangle 653" class="cls-5" d="M3.419,0H66.473a3.419,3.419,0,0,1,3.419,3.419v39.1a0,0,0,0,1,0,0H0a0,0,0,0,1,0,0V3.419A3.419,3.419,0,0,1,3.419,0Z" transform="translate(532.007 437.801)"/>
      <rect id="Rectangle_654" data-name="Rectangle 654" class="cls-6" width="31.385" height="3.812" rx="1.875" transform="translate(537.382 445.776)"/>
      <rect id="Rectangle_655" data-name="Rectangle 655" class="cls-6" width="31.385" height="3.812" rx="1.875" transform="translate(537.382 451.294)"/>
      <rect id="Rectangle_656" data-name="Rectangle 656" class="cls-6" width="12.868" height="3.812" rx="1.875" transform="translate(583.655 472.952)"/>
      <rect id="Rectangle_657" data-name="Rectangle 657" class="cls-6" width="30.577" height="3.812" rx="1.875" transform="translate(579.655 424.007)"/>
      <path id="Path_715" data-name="Path 715" class="cls-7" d="M512.932,398.437A2.267,2.267,0,1,0,515.2,400.7,2.267,2.267,0,0,0,512.932,398.437Zm0,4a1.737,1.737,0,1,1,1.736-1.739A1.741,1.741,0,0,1,512.932,402.442Z"/>
      <path id="Path_716" data-name="Path 716" class="cls-7" d="M629.584,510.522a2.268,2.268,0,1,0,2.266,2.266A2.267,2.267,0,0,0,629.584,510.522Zm0,4a1.737,1.737,0,1,1,1.736-1.739A1.74,1.74,0,0,1,629.584,514.527Z"/>
      <path id="Path_717" data-name="Path 717" class="cls-7" d="M571.428,372.012a1.5,1.5,0,1,0,1.5,1.5A1.5,1.5,0,0,0,571.428,372.012Zm0,2.651a1.15,1.15,0,1,1,1.148-1.151A1.151,1.151,0,0,1,571.428,374.663Z"/>
      <path id="Path_718" data-name="Path 718" class="cls-7" d="M647.287,427.906a2.27,2.27,0,1,0,2.26,2.27A2.268,2.268,0,0,0,647.287,427.906Zm0,4.01a1.74,1.74,0,1,1,1.73-1.74A1.741,1.741,0,0,1,647.287,431.916Z"/>
      <rect id="Rectangle_658" data-name="Rectangle 658" class="cls-8" width="2.51" height="2.51" transform="translate(518.588 432.113) rotate(-45)"/>
      <rect id="Rectangle_659" data-name="Rectangle 659" class="cls-8" width="1.349" height="1.349" transform="translate(561.853 480.378) rotate(-45)"/>
      <rect id="Rectangle_660" data-name="Rectangle 660" class="cls-8" width="1.349" height="1.349" transform="translate(568.972 398.967) rotate(-45)"/>
      <rect id="Rectangle_661" data-name="Rectangle 661" class="cls-8" width="2.51" height="2.51" transform="translate(617.277 387.172) rotate(-45)"/>
      <rect id="Rectangle_662" data-name="Rectangle 662" class="cls-8" width="2.51" height="2.51" transform="translate(634.143 461.105) rotate(-45)"/>
      <rect id="Rectangle_663" data-name="Rectangle 663" class="cls-8" width="2.51" height="2.51" transform="translate(598.977 488.105) rotate(-45)"/>
      <path id="Path_719" data-name="Path 719" class="cls-9" d="M542.289,432.3a7.74,7.74,0,0,1,.5-5.229c2.26-4.407,10.022-6.273,19.047-3.548"/>
      <path id="Path_720" data-name="Path 720" class="cls-10" d="M567.131,423.8l1.405,1.953a.727.727,0,0,1-.517,1.147l-2.394.24-2.394.24a.726.726,0,0,1-.735-1.021l1.261-1.551a2.112,2.112,0,0,0,.446-.983l.3-1.776a.686.686,0,0,1,1.223-.2Z"/>
    </g>
  </g>
</svg>
