<svg xmlns="http://www.w3.org/2000/svg" width="62.002" height="61.001" viewBox="0 0 62.002 61.001">
  <defs>
    <style>
      .cls-1 {
        fill: #fff;
      }
    </style>
  </defs>
  <g id="Group_745" data-name="Group 745" transform="translate(-678.625 -4677.002)">
    <path id="Subtraction_18" data-name="Subtraction 18" class="cls-1" d="M4021-13235a31.241,31.241,0,0,1-12.067-2.4,30.944,30.944,0,0,1-9.854-6.536,30.392,30.392,0,0,1-6.645-9.7A29.887,29.887,0,0,1,3990-13265.5a29.879,29.879,0,0,1,2.436-11.871,30.372,30.372,0,0,1,6.645-9.7,30.944,30.944,0,0,1,9.854-6.536A31.264,31.264,0,0,1,4021-13296a31.256,31.256,0,0,1,12.065,2.4,30.938,30.938,0,0,1,9.854,6.536,30.37,30.37,0,0,1,6.644,9.7A29.879,29.879,0,0,1,4052-13265.5a29.887,29.887,0,0,1-2.436,11.872,30.4,30.4,0,0,1-6.644,9.7,30.938,30.938,0,0,1-9.854,6.536A31.232,31.232,0,0,1,4021-13235Zm-3.934-34.3a9.706,9.706,0,0,0-7.334,3.28,9.565,9.565,0,0,0-2.409,5.763,9.483,9.483,0,0,0,2.84,7.428,9.9,9.9,0,0,0,.921.8,9.725,9.725,0,0,0,5.983,2.022,10.335,10.335,0,0,0,1.468-.106,9.682,9.682,0,0,0,5.432-2.72,9.52,9.52,0,0,0,2.86-6.78l-.027-11.379a12.885,12.885,0,0,0,2.86,1.668,12.888,12.888,0,0,0,5.035,1.015v-5.068s-.006,0-.017,0a7.815,7.815,0,0,1-4.745-1.588,7.858,7.858,0,0,1-2.986-4.745,7.682,7.682,0,0,1-.15-1.475h-5.092v13.911l-.007,7.618a4.6,4.6,0,0,1-3.163,4.371,4.6,4.6,0,0,1-1.452.233c-.092,0-.18,0-.26-.007a4.619,4.619,0,0,1-2.106-.647,4.574,4.574,0,0,1-2.252-3.88,4.567,4.567,0,0,1,1.321-3.3,4.587,4.587,0,0,1,3.293-1.378,4.552,4.552,0,0,1,1.455.234v-5.169A9.8,9.8,0,0,0,4017.067-13269.3Z" transform="translate(-3311.374 17973.002)"/>
  </g>
</svg>
