<svg xmlns="http://www.w3.org/2000/svg" xmlns:xlink="http://www.w3.org/1999/xlink" width="1440.41" height="891.67" viewBox="0 0 1440.41 891.67">
  <defs>
    <style>
      .cls-1 {
        fill: #e7effd;
      }

      .cls-2 {
        fill: #9cda9a;
      }

      .cls-3 {
        fill: url(#linear-gradient);
      }

      .cls-4 {
        fill: #ffcd7f;
      }

      .cls-5 {
        fill: #ffc872;
      }

      .cls-6 {
        fill: #ffdba3;
      }

      .cls-7 {
        fill: #e17899;
      }

      .cls-8 {
        fill: #ffabab;
      }

      .cls-16, .cls-20, .cls-21, .cls-9 {
        fill: #fff;
      }

      .cls-10 {
        fill: #ffcdcd;
      }

      .cls-11 {
        fill: #e1abab;
      }

      .cls-12, .cls-34 {
        fill: #ffc0c0;
      }

      .cls-13 {
        fill: #5e72a4;
      }

      .cls-14 {
        fill: #8dc3be;
      }

      .cls-15, .cls-28, .cls-29, .cls-30, .cls-32 {
        fill: none;
      }

      .cls-16 {
        opacity: 0.18;
        isolation: isolate;
      }

      .cls-17, .cls-18, .cls-19 {
        fill: #ecffff;
      }

      .cls-17 {
        opacity: 0.36;
      }

      .cls-18 {
        opacity: 0.58;
      }

      .cls-19 {
        opacity: 0.42;
      }

      .cls-20 {
        opacity: 0.03;
      }

      .cls-21 {
        opacity: 0.02;
      }

      .cls-22 {
        fill: #b986ee;
      }

      .cls-23 {
        fill: #c194f0;
      }

      .cls-24, .cls-25 {
        fill: #9db5ff;
      }

      .cls-24 {
        opacity: 0.54;
      }

      .cls-26 {
        fill: #8ba4f3;
      }

      .cls-27 {
        fill: #1a1a1a;
      }

      .cls-28 {
        stroke: #9db5ff;
      }

      .cls-28, .cls-29, .cls-30, .cls-32 {
        stroke-linecap: round;
        stroke-miterlimit: 10;
      }

      .cls-28, .cls-32 {
        stroke-width: 6px;
      }

      .cls-29 {
        stroke: #efb8bb;
        stroke-width: 8px;
      }

      .cls-30, .cls-32 {
        stroke: #000;
      }

      .cls-30 {
        stroke-width: 3px;
      }

      .cls-31 {
        fill: #7bedd8;
      }

      .cls-32 {
        opacity: 0.53;
      }

      .cls-33 {
        fill: #45edd8;
      }

      .cls-34 {
        opacity: 0.7;
      }
    </style>
    <linearGradient id="linear-gradient" x1="0.837" y1="0.949" x2="0.009" y2="-0.474" gradientUnits="objectBoundingBox">
      <stop offset="0" stop-color="#1abebe"/>
      <stop offset="1" stop-color="#0d5f5f" stop-opacity="0"/>
    </linearGradient>
  </defs>
  <g id="Group_750" data-name="Group 750" transform="translate(156.41 1820.5)">
    <circle id="Ellipse_13-2" data-name="Ellipse 13-2" class="cls-1" cx="1.554" cy="1.554" r="1.554" transform="translate(91.88 -1430.673)"/>
    <circle id="Ellipse_138" data-name="Ellipse 138" class="cls-1" cx="1.554" cy="1.554" r="1.554" transform="translate(90.88 -1430.673)"/>
    <path id="Path_830" data-name="Path 830" class="cls-2" d="M221.74-1091.51v698.18q-6.81,1.59-13.47,3.19c-52.22,12.53-97.18,25.35-136.96,38.09-53.42,17.11-97.5,34.08-137.29,50.06-2.78,1.11-5.53,2.22-8.27,3.33s-5.45,2.2-8.15,3.3q-8.1,3.285-16,6.5-3.96,1.6-7.87,3.2t-7.8,3.16c-2.59,1.05-5.16,2.09-7.73,3.12s-5.13,2.06-7.68,3.08c-1.28.51-2.55,1.02-3.82,1.52q-3.825,1.515-7.62,3.02c-1.27.49-2.53.99-3.8,1.49-2.53.99-5.05,1.97-7.58,2.94s-5.04,1.94-7.57,2.9c-1.26.48-2.52.95-3.78,1.43q-3.78,1.425-7.57,2.82t-7.58,2.77q-5.685,2.055-11.42,4.05c-2.54.88-5.1,1.76-7.66,2.63s-5.13,1.72-7.71,2.57-5.16,1.68-7.76,2.51-5.22,1.64-7.84,2.45c-1.32.4-2.63.8-3.95,1.2-11.88,3.58-24.05,6.94-36.65,10.05q-6.315,1.56-12.77,3.03c-1.43.32-2.88.65-4.32.97q-4.35.96-8.77,1.89a861.35,861.35,0,0,1-109.44,15.23c-24.08,1.89-50.06,3.12-78.38,3.6q-11.145.18-22.79.22c-46.21.14-85.76-2.1-120.66-6.36-1.38-.17-2.75-.34-4.11-.52-3.12-.39-6.2-.81-9.24-1.24q-12.555-1.77-24.32-3.89c-1.09-.2-2.17-.4-3.25-.6-2.16-.39-4.3-.81-6.42-1.23-1.06-.21-2.11-.42-3.17-.64q-7.965-1.6-15.61-3.38c-.96-.23-1.92-.45-2.87-.68-1.01-.23-2.01-.47-3-.73-.94-.21-1.88-.46-2.81-.68q-13.44-3.345-26.03-7.18c-1.03-.31-2.06-.63-3.09-.94-1.56-.48-3.11-.98-4.66-1.47s-3.08-.99-4.61-1.5c-.96-.31-1.92-.64-2.88-.95q-3.63-1.215-7.2-2.48c-1.19-.42-2.38-.84-3.56-1.27s-2.37-.85-3.54-1.28c-.77-.28-1.54-.57-2.3-.85-.81-.3-1.61-.59-2.4-.89s-1.59-.59-2.39-.9c-1.19-.45-2.37-.91-3.55-1.37l-3.81-1.5c-1.26-.5-2.52-1-3.78-1.51q-2.745-1.125-5.48-2.25c-.86-.36-1.72-.72-2.58-1.09-1.89-.78-3.77-1.59-5.64-2.39q-1.65-.705-3.3-1.44-3.225-1.395-6.44-2.84c-2.55-1.14-5.09-2.29-7.62-3.48-.84-.39-1.69-.78-2.53-1.17-2.53-1.18-5.06-2.36-7.59-3.57s-5.05-2.42-7.58-3.65c-1.68-.82-3.37-1.65-5.05-2.48s-3.38-1.67-5.07-2.51c-3.37-1.68-6.76-3.37-10.16-5.1q-2.55-1.275-5.11-2.6c-1.07-.54-2.14-1.09-3.21-1.63q-7.365-3.78-14.88-7.68-2.61-1.35-5.24-2.72c-2.52-1.31-5.06-2.62-7.61-3.95-9.88-5.13-20.02-10.39-30.51-15.75q-2.835-1.455-5.7-2.91c-2.15-1.09-4.32-2.18-6.51-3.29-.72-.37-1.45-.72-2.18-1.09q-13.155-6.615-27.21-13.4c-1.85-.89-3.71-1.77-5.6-2.68-11.88-5.65-24.3-11.38-37.38-17.15-59.37-26.2-132.43-53.41-230.56-79.46v-654.18Z" transform="translate(1062.055 -728.99)"/>
    <path id="Path_831" data-name="Path 831" class="cls-3" d="M221.74-1091.51v698.18q-6.81,1.59-13.47,3.19c-52.22,12.53-97.18,25.35-136.96,38.09-53.42,17.11-97.5,34.08-137.29,50.06-2.78,1.11-5.53,2.22-8.27,3.33s-5.45,2.2-8.15,3.3q-8.1,3.285-16,6.5-3.96,1.6-7.87,3.2t-7.8,3.16c-2.59,1.05-5.16,2.09-7.73,3.12s-5.13,2.06-7.68,3.08c-1.28.51-2.55,1.02-3.82,1.52q-3.825,1.515-7.62,3.02c-1.27.49-2.53.99-3.8,1.49-2.53.99-5.05,1.97-7.58,2.94s-5.04,1.94-7.57,2.9c-1.26.48-2.52.95-3.78,1.43q-3.78,1.425-7.57,2.82t-7.58,2.77q-5.685,2.055-11.42,4.05c-2.54.88-5.1,1.76-7.66,2.63s-5.13,1.72-7.71,2.57-5.16,1.68-7.76,2.51-5.22,1.64-7.84,2.45c-1.32.4-2.63.8-3.95,1.2-11.88,3.58-24.05,6.94-36.65,10.05q-6.315,1.56-12.77,3.03c-1.43.32-2.88.65-4.32.97q-4.35.96-8.77,1.89a861.35,861.35,0,0,1-109.44,15.23c-24.08,1.89-50.06,3.12-78.38,3.6q-11.145.18-22.79.22c-46.21.14-85.76-2.1-120.66-6.36-1.38-.17-2.75-.34-4.11-.52-3.12-.39-6.2-.81-9.24-1.24q-12.555-1.77-24.32-3.89c-1.09-.2-2.17-.4-3.25-.6-2.16-.39-4.3-.81-6.42-1.23-1.06-.21-2.11-.42-3.17-.64q-7.965-1.6-15.61-3.38c-.96-.23-1.92-.45-2.87-.68-1.01-.23-2.01-.47-3-.73-.94-.21-1.88-.46-2.81-.68q-13.44-3.345-26.03-7.18c-1.03-.31-2.06-.63-3.09-.94-1.56-.48-3.11-.98-4.66-1.47s-3.08-.99-4.61-1.5c-.96-.31-1.92-.64-2.88-.95q-3.63-1.215-7.2-2.48c-1.19-.42-2.38-.84-3.56-1.27s-2.37-.85-3.54-1.28c-.77-.28-1.54-.57-2.3-.85-.81-.3-1.61-.59-2.4-.89s-1.59-.59-2.39-.9c-1.19-.45-2.37-.91-3.55-1.37l-3.81-1.5c-1.26-.5-2.52-1-3.78-1.51q-2.745-1.125-5.48-2.25c-.86-.36-1.72-.72-2.58-1.09-1.89-.78-3.77-1.59-5.64-2.39q-1.65-.705-3.3-1.44-3.225-1.395-6.44-2.84c-2.55-1.14-5.09-2.29-7.62-3.48-.84-.39-1.69-.78-2.53-1.17-2.53-1.18-5.06-2.36-7.59-3.57s-5.05-2.42-7.58-3.65c-1.68-.82-3.37-1.65-5.05-2.48s-3.38-1.67-5.07-2.51c-3.37-1.68-6.76-3.37-10.16-5.1q-2.55-1.275-5.11-2.6c-1.07-.54-2.14-1.09-3.21-1.63q-7.365-3.78-14.88-7.68-2.61-1.35-5.24-2.72c-2.52-1.31-5.06-2.62-7.61-3.95-9.88-5.13-20.02-10.39-30.51-15.75q-2.835-1.455-5.7-2.91c-2.15-1.09-4.32-2.18-6.51-3.29-.72-.37-1.45-.72-2.18-1.09q-13.155-6.615-27.21-13.4c-1.85-.89-3.71-1.77-5.6-2.68-11.88-5.65-24.3-11.38-37.38-17.15-59.37-26.2-132.43-53.41-230.56-79.46v-654.18Z" transform="translate(1062.055 -728.99)"/>
    <path id="Path_832" data-name="Path 832" class="cls-4" d="M61.155-506.7c-19.57,20.958-44.24,38.911-73.39,41.714-31.08,3.006-42.79-13.545-84-22.764-52.18-11.658-70.75,6.523-139.12,14.381-16.47,1.887-63.35-1.51-156.44-8.383-107-7.911-135.29-11.7-160.54-24.948Z" transform="translate(1061.055 -728.99)"/>
    <path id="Path_833" data-name="Path 833" class="cls-5" d="M221.945-506.7v46.56h-1440.41V-506.7h666.13c25.25,9.83,53.54,12.64,160.54,18.51,93.09,5.1,139.97,7.62,156.44,6.22,68.37-5.83,86.94-19.32,139.12-10.67,41.21,6.84,52.92,19.12,84,16.89,29.15-2.08,53.82-15.4,73.39-30.95Z" transform="translate(1062.055 -728.99)"/>
    <path id="Path_834" data-name="Path 834" class="cls-6" d="M221.74-462.74v70.813q-6.81,1.622-13.47,3.254c-52.22,12.783-97.18,25.863-136.96,38.86-53.42,17.456-97.5,34.769-137.29,51.072-2.78,1.132-5.53,2.265-8.27,3.4s-5.45,2.244-8.15,3.367q-8.1,3.351-16,6.631-3.96,1.637-7.87,3.265t-7.8,3.224c-2.59,1.071-5.16,2.132-7.73,3.183s-5.13,2.1-7.68,3.142c-1.28.52-2.55,1.041-3.82,1.551q-3.825,1.546-7.62,3.081c-1.27.5-2.53,1.01-3.8,1.52-2.53,1.01-5.05,2.01-7.58,3s-5.04,1.979-7.57,2.959c-1.26.49-2.52.969-3.78,1.459q-3.78,1.454-7.57,2.877t-7.58,2.826q-5.685,2.1-11.42,4.132c-2.54.9-5.1,1.8-7.66,2.683s-5.13,1.755-7.71,2.622-5.16,1.714-7.76,2.561-5.22,1.673-7.84,2.5c-1.32.408-2.63.816-3.95,1.224-11.88,3.652-24.05,7.08-36.65,10.253q-6.315,1.592-12.77,3.091c-1.43.326-2.88.663-4.32.99q-4.35.979-8.77,1.928a845.312,845.312,0,0,1-109.44,15.538c-24.08,1.928-50.06,3.183-78.38,3.673q-11.145.184-22.79.224c-46.21.143-85.76-2.142-120.66-6.489-1.38-.173-2.75-.347-4.11-.531-3.12-.4-6.2-.826-9.24-1.265q-12.555-1.806-24.32-3.969c-1.09-.2-2.17-.408-3.25-.612-2.16-.4-4.3-.826-6.42-1.255-1.06-.214-2.11-.428-3.17-.653q-7.965-1.637-15.61-3.448c-.96-.235-1.92-.459-2.87-.694-1.01-.235-2.01-.48-3-.745-.94-.214-1.88-.469-2.81-.694q-13.44-3.413-26.03-7.325c-1.03-.316-2.06-.643-3.09-.959-1.56-.49-3.11-1-4.66-1.5s-3.08-1.01-4.61-1.53c-.96-.316-1.92-.653-2.88-.969q-3.63-1.24-7.2-2.53c-1.19-.428-2.38-.857-3.56-1.3s-2.37-.867-3.54-1.306c-.77-.286-1.54-.582-2.3-.867-.81-.306-1.61-.6-2.4-.908s-1.59-.6-2.39-.918c-1.19-.459-2.37-.928-3.55-1.4l-3.81-1.53c-1.26-.51-2.52-1.02-3.78-1.541q-2.745-1.148-5.48-2.3c-.86-.367-1.72-.735-2.58-1.112-1.89-.8-3.77-1.622-5.64-2.438q-1.65-.719-3.3-1.469-3.225-1.423-6.44-2.9c-2.55-1.163-5.09-2.336-7.62-3.55-.84-.4-1.69-.8-2.53-1.194-2.53-1.2-5.06-2.408-7.59-3.642s-5.05-2.469-7.58-3.724c-1.68-.837-3.37-1.683-5.05-2.53s-3.38-1.7-5.07-2.561c-3.37-1.714-6.76-3.438-10.16-5.2q-2.55-1.3-5.11-2.653c-1.07-.551-2.14-1.112-3.21-1.663q-7.365-3.856-14.88-7.835-2.61-1.377-5.24-2.775c-2.52-1.336-5.06-2.673-7.61-4.03-9.88-5.234-20.02-10.6-30.51-16.068q-2.835-1.484-5.7-2.969c-2.15-1.112-4.32-2.224-6.51-3.357-.72-.378-1.45-.735-2.18-1.112q-13.155-6.749-27.21-13.671c-1.85-.908-3.71-1.806-5.6-2.734-11.88-5.764-24.3-11.61-37.38-17.5-59.37-26.73-132.43-54.49-230.56-81.067V-462.74Z" transform="translate(1062.055 -728.99)"/>
    <path id="Path_835" data-name="Path 835" class="cls-7" d="M-915.427-455.622a60.851,60.851,0,0,1-24.14,23.69c-.28.17-.57.32-.86.47a59.715,59.715,0,0,1-19.35,6.2c-.3.05-.6.09-.9.13a55.313,55.313,0,0,1-6.34.46q-.7.03-1.41.03-1.98,0-3.93-.12a60.3,60.3,0,0,1-15.34-3q-2.61-.87-5.12-1.97a61.094,61.094,0,0,1-28.63-25.89,86.067,86.067,0,0,0,16.31,7.18,119.073,119.073,0,0,0,36.71,5.58,118.672,118.672,0,0,0,36.68-5.58A84.914,84.914,0,0,0-915.427-455.622Z" transform="translate(1062.055 -728.99)"/>
    <path id="Path_836" data-name="Path 836" class="cls-8" d="M-907.6-485.461a60.472,60.472,0,0,1-7.82,29.84,84.912,84.912,0,0,1-16.32,7.18,118.672,118.672,0,0,1-36.68,5.58,119.072,119.072,0,0,1-36.71-5.58,86.067,86.067,0,0,1-16.31-7.18,60.571,60.571,0,0,1-7.81-29.84,60.487,60.487,0,0,1,11.74-35.91,60.728,60.728,0,0,1,49.09-24.91,60.747,60.747,0,0,1,49.09,24.9A60.577,60.577,0,0,1-907.6-485.461Z" transform="translate(1062.055 -728.99)"/>
    <ellipse id="Ellipse_198" data-name="Ellipse 198" class="cls-9" cx="9.016" cy="5.888" rx="9.016" ry="5.888" transform="translate(75.588 -1252.888)"/>
    <path id="Path_837" data-name="Path 837" class="cls-8" d="M-914.657-603.385l9.462.652c4.056,7.569,9.924,21.069,9.561,37.313-.871,39.115-37.039,57.059-40.233,58.573l-5.232-9.9a72.205,72.205,0,0,0,14.416-10.368c5.556-5.153,16.41-15.218,19.887-32.1C-902.633-579.44-911.5-597.531-914.657-603.385Z" transform="translate(1062.055 -728.99)"/>
    <ellipse id="Ellipse_199" data-name="Ellipse 199" class="cls-9" cx="9.016" cy="5.888" rx="9.016" ry="5.888" transform="translate(93.62 -1252.888)"/>
    <path id="Path_838" data-name="Path 838" class="cls-8" d="M-1022.2-440.487l-9.462-.652c-4.056-7.569-9.923-21.069-9.561-37.313.872-39.115,37.039-57.059,40.233-58.573l5.232,9.9a72.174,72.174,0,0,0-14.415,10.368c-5.557,5.153-16.41,15.218-19.888,32.1C-1034.224-464.432-1025.36-446.341-1022.2-440.487Z" transform="translate(1062.055 -728.99)"/>
    <circle id="Ellipse_200" data-name="Ellipse 200" class="cls-8" cx="12.5" cy="12.5" r="12.5" transform="translate(23.026 -1178.987)"/>
    <path id="Path_839" data-name="Path 839" class="cls-10" d="M-918.358-559.461c0,24.13-22.421,43.7-50.07,43.7s-50.07-19.57-50.07-43.7c0-14.18,7.739-26.78,19.739-34.76a54.7,54.7,0,0,1,30.331-8.93,54.7,54.7,0,0,1,30.33,8.93C-926.1-586.241-918.358-573.641-918.358-559.461Z" transform="translate(1062.055 -728.99)"/>
    <path id="Path_840" data-name="Path 840" class="cls-7" d="M-938.1-617.2v22.98a54.7,54.7,0,0,0-30.33-8.93,54.7,54.7,0,0,0-30.331,8.93V-617.2a29.168,29.168,0,0,1,15.071-25.36,31.228,31.228,0,0,1,30.52,0,29.683,29.683,0,0,1,11.03,10.73A28.64,28.64,0,0,1-938.1-617.2Z" transform="translate(1062.055 -728.99)"/>
    <circle id="Ellipse_201" data-name="Ellipse 201" class="cls-11" cx="8" cy="8" r="8" transform="translate(65.876 -1307.851)"/>
    <circle id="Ellipse_202" data-name="Ellipse 202" class="cls-11" cx="8" cy="8" r="8" transform="translate(103.652 -1307.241)"/>
    <path id="Path_841" data-name="Path 841" class="cls-12" d="M-927.015-467.641a40.929,40.929,0,0,1-4.73,19.2,118.672,118.672,0,0,1-36.68,5.58,119.072,119.072,0,0,1-36.71-5.58,41.275,41.275,0,0,1-4.71-19.2,41.157,41.157,0,0,1,8-24.45,41.337,41.337,0,0,1,33.42-16.96,41.343,41.343,0,0,1,33.42,16.95A41.247,41.247,0,0,1-927.015-467.641Z" transform="translate(1062.055 -728.99)"/>
    <ellipse id="Ellipse_203" data-name="Ellipse 203" class="cls-9" cx="16.667" cy="11.556" rx="16.667" ry="11.556" transform="translate(76.953 -1358.517)"/>
    <circle id="Ellipse_204" data-name="Ellipse 204" class="cls-13" cx="6.667" cy="6.667" r="6.667" transform="translate(86.953 -1353.628)"/>
    <circle id="Ellipse_205" data-name="Ellipse 205" class="cls-11" cx="4.215" cy="4.215" r="4.215" transform="translate(89.412 -1191.73)"/>
    <path id="Path_842" data-name="Path 842" class="cls-14" d="M-968.435-641.015h0a5.05,5.05,0,0,1-5.049-5.169l.694-29.609a4.078,4.078,0,0,1,4.078-4.078h0a4.078,4.078,0,0,1,4.077,4.078l1.246,29.514A5.051,5.051,0,0,1-968.435-641.015Z" transform="translate(1062.055 -728.99)"/>
    <path id="Path_843" data-name="Path 843" class="cls-14" d="M-981.142-638.7h0a4.633,4.633,0,0,1-6.15-2.471l-10.37-25.112a3.741,3.741,0,0,1,1.914-4.931h0a3.74,3.74,0,0,1,4.931,1.915l11.964,24.314A4.633,4.633,0,0,1-981.142-638.7Z" transform="translate(1062.055 -728.99)"/>
    <path id="Path_844" data-name="Path 844" class="cls-14" d="M-957.54-638.161l.415.183a4.413,4.413,0,0,0,5.859-2.354l10.456-25.319a3.74,3.74,0,0,0-1.915-4.931h0a3.741,3.741,0,0,0-4.931,1.914l-12.064,24.521A4.412,4.412,0,0,0-957.54-638.161Z" transform="translate(1062.055 -728.99)"/>
    <path id="Path_845" data-name="Path 845" class="cls-8" d="M-941.827-409.172c-2.81,3.52-6.79,4.04-10.42,1.37a15.915,15.915,0,0,1-4.59-5.77,26.52,26.52,0,0,1-2.5-8.35l-.44-3.34a59.715,59.715,0,0,0,19.35-6.2c.29-.15.58-.3.86-.47l.95,7.3C-937.817-418.542-939.037-412.652-941.827-409.172Z" transform="translate(1062.055 -728.99)"/>
    <path id="Path_846" data-name="Path 846" class="cls-8" d="M-972.357-424.762l-.44,3.86c-.7,6.11-3.31,11.52-6.86,14.23-3.58,2.73-7.57,2.27-10.45-1.2a16.118,16.118,0,0,1-3.05-6.71,26.639,26.639,0,0,1-.4-8.71l.74-6.44q2.505,1.095,5.12,1.97A60.3,60.3,0,0,0-972.357-424.762Z" transform="translate(1062.055 -728.99)"/>
    <circle id="Ellipse_206" data-name="Ellipse 206" class="cls-8" cx="12.5" cy="12.5" r="12.5" transform="translate(139.227 -1347.865)"/>
    <path id="Path_847" data-name="Path 847" class="cls-15" d="M-979.534-633.619c3.817,0,8.149,1.916,11.451,0,4.893-2.84,7.546-.244,10.747,0" transform="translate(1062.055 -728.99)"/>
    <circle id="Ellipse_207" data-name="Ellipse 207" class="cls-4" cx="21.975" cy="21.975" r="21.975" transform="translate(230.055 -1124.99)"/>
    <circle id="Ellipse_208" data-name="Ellipse 208" class="cls-4" cx="22.17" cy="22.17" r="22.17" transform="translate(542.245 -1130.99)"/>
    <circle id="Ellipse_209" data-name="Ellipse 209" class="cls-4" cx="16.67" cy="16.67" r="16.67" transform="translate(998.055 -1119.99)"/>
    <circle id="Ellipse_210" data-name="Ellipse 210" class="cls-4" cx="11.512" cy="11.512" r="11.512" transform="translate(645.055 -1008.63)"/>
    <path id="Path_848" data-name="Path 848" class="cls-16" d="M71.31-352.05c-53.42,17.11-97.5,34.08-137.29,50.06-2.78,1.11-5.53,2.22-8.27,3.33s-5.45,2.2-8.15,3.3q-8.1,3.285-16,6.5-3.96,1.6-7.87,3.2t-7.8,3.16c-2.59,1.05-5.16,2.09-7.73,3.12s-5.13,2.06-7.68,3.08c-1.28.51-2.55,1.02-3.82,1.52q-3.825,1.515-7.62,3.02c-1.27.49-2.53.99-3.8,1.49-2.53.99-5.05,1.97-7.58,2.94s-5.04,1.94-7.57,2.9c-1.26.48-2.52.95-3.78,1.43q-3.78,1.425-7.57,2.82t-7.58,2.77q-5.685,2.055-11.42,4.05c-2.54.88-5.1,1.76-7.66,2.63s-5.13,1.72-7.71,2.57-5.16,1.68-7.76,2.51-5.22,1.64-7.84,2.45c-1.32.4-2.63.8-3.95,1.2-11.88,3.58-24.05,6.94-36.65,10.05q-6.315,1.56-12.77,3.03c-1.43.32-2.88.65-4.32.97q-4.35.96-8.77,1.89a861.35,861.35,0,0,1-109.44,15.23c-24.08,1.89-50.06,3.12-78.38,3.6q15.795-10.83,32.29-21,35.985-22.17,74.39-41.51a619.446,619.446,0,0,1,68.89-29.61,698.958,698.958,0,0,1,69.15-20.86l.02-.01c36.75-9.1,75.67-15.84,119.02-20.62,40.32-4.44,78.72-6.56,110.99-8.04,9.97-.45,19.83-.87,29.35-1.26l1.29-.06C44.22-350.8,58.04-351.38,71.31-352.05Z" transform="translate(1055.205 -721.6)"/>
    <path id="Path_849" data-name="Path 849" class="cls-16" d="M-872.61-301.6c-9.88-5.13-20.02-10.39-30.51-15.75q-2.835-1.455-5.7-2.91c-2.15-1.09-4.32-2.18-6.51-3.29-.72-.37-1.45-.72-2.18-1.09q-13.155-6.615-27.21-13.4c-1.85-.89-3.71-1.77-5.6-2.68-11.88-5.65-24.3-11.38-37.38-17.15-59.37-26.2-132.43-53.41-230.56-79.46V-549.4q28.23,4.38,56.01,11.24a361.5,361.5,0,0,1,66.56,23.42,383.015,383.015,0,0,1,57.48,33.32h.01v.01q12.495,8.745,24.69,18.67a531.536,531.536,0,0,1,58.11,55.59c25.37,27.97,47.3,56.97,65.4,81.64,5.6,7.63,11.09,15.21,16.4,22.55l.72.99C-872.79-301.85-872.7-301.72-872.61-301.6Z" transform="translate(1062.055 -728.99)"/>
    <g id="Group_746" data-name="Group 746" transform="translate(1062.055 -728.99)">
      <path id="Path_757" data-name="Path 757" class="cls-17" d="M-324-559.29a5.027,5.027,0,0,0-5.03,5.03,5.025,5.025,0,0,0,5.03,5.02,5.013,5.013,0,0,0,5-5.02A5.015,5.015,0,0,0-324-559.29Zm0,8.88a3.852,3.852,0,0,1-3.85-3.85,3.854,3.854,0,0,1,3.85-3.86,3.837,3.837,0,0,1,3.83,3.86A3.835,3.835,0,0,1-324-550.41Z"/>
      <g id="Group_700" data-name="Group 700">
        <path id="Path_758" data-name="Path 758" class="cls-17" d="M-1028.53-833.74a3.318,3.318,0,0,0-3.32,3.32,3.312,3.312,0,0,0,3.32,3.32,3.318,3.318,0,0,0,3.32-3.32A3.325,3.325,0,0,0-1028.53-833.74Zm0,5.87a2.548,2.548,0,0,1-2.55-2.55,2.539,2.539,0,0,1,2.55-2.54,2.531,2.531,0,0,1,2.54,2.54A2.539,2.539,0,0,1-1028.53-827.87Z"/>
        <rect id="Rectangle_664" data-name="Rectangle 664" class="cls-18" width="8.563" height="8.563" transform="translate(-1147.645 -700.676) rotate(-45)"/>
        <rect id="Rectangle_665" data-name="Rectangle 665" class="cls-18" width="8.563" height="8.563" transform="translate(-755.036 -896.758) rotate(-45)"/>
        <rect id="Rectangle_666" data-name="Rectangle 666" class="cls-19" width="5.557" height="5.557" transform="translate(-1145.519 -700.676) rotate(-45)"/>
        <rect id="Rectangle_667" data-name="Rectangle 667" class="cls-19" width="5.557" height="5.557" transform="translate(-901.874 -999.088) rotate(-45)"/>
        <rect id="Rectangle_668" data-name="Rectangle 668" class="cls-19" width="5.557" height="5.557" transform="translate(-454.687 -716.466) rotate(-45)"/>
        <rect id="Rectangle_669" data-name="Rectangle 669" class="cls-19" width="5.557" height="5.557" transform="translate(-779.785 -679.05) rotate(-45)"/>
        <rect id="Rectangle_670" data-name="Rectangle 670" class="cls-19" width="5.557" height="5.557" transform="translate(-340.568 -972.693) rotate(-45)"/>
        <rect id="Rectangle_671" data-name="Rectangle 671" class="cls-19" width="5.557" height="5.557" transform="translate(-132.785 -735.05) rotate(-45)"/>
        <rect id="Rectangle_672" data-name="Rectangle 672" class="cls-19" width="5.557" height="5.557" transform="translate(-37.434 -936.851) rotate(-45)"/>
        <path id="Path_759" data-name="Path 759" class="cls-17" d="M-511.3-786.66a3.325,3.325,0,0,0-3.32,3.32,3.327,3.327,0,0,0,3.32,3.33,3.32,3.32,0,0,0,3.32-3.33A3.318,3.318,0,0,0-511.3-786.66Zm0,5.87a2.546,2.546,0,0,1-2.54-2.55,2.537,2.537,0,0,1,2.54-2.54,2.539,2.539,0,0,1,2.55,2.54A2.548,2.548,0,0,1-511.3-780.79Z"/>
        <rect id="Rectangle_673" data-name="Rectangle 673" class="cls-19" width="5.557" height="5.557" transform="translate(-531.011 -1056.05) rotate(-45)"/>
        <rect id="Rectangle_674" data-name="Rectangle 674" class="cls-19" width="5.557" height="5.557" transform="translate(62.547 -669.384) rotate(-45)"/>
        <path id="Path_760" data-name="Path 760" class="cls-17" d="M-514.79-594.03a5.017,5.017,0,0,0-5.02,5.02,5.019,5.019,0,0,0,5.02,5.03,5.023,5.023,0,0,0,5.01-5.03A5.021,5.021,0,0,0-514.79-594.03Zm0,8.88a3.86,3.86,0,0,1-3.85-3.86,3.858,3.858,0,0,1,3.85-3.85,3.835,3.835,0,0,1,3.83,3.85A3.837,3.837,0,0,1-514.79-585.15Z"/>
      </g>
    </g>
    <g id="Group_747" data-name="Group 747" transform="translate(1068.055 -719.99)">
      <path id="Path_761" data-name="Path 761" class="cls-20" d="M72.84-1025.037a82.466,82.466,0,0,0-82.47,82.47,82.464,82.464,0,0,0,82.47,82.46,82.462,82.462,0,0,0,82.46-82.46A82.464,82.464,0,0,0,72.84-1025.037Zm-56.52,59.73a128.791,128.791,0,0,1,18.25-.95c21.39.4,31.04,5.96,48.31,7.4,10.9.91,26.63.33,46.52-7.04a61.09,61.09,0,0,1,4.67,22.75v.73c0,1.93-.09,3.83-.26,5.71-.06.62-.13,1.24-.21,1.85-.04.31-.08.63-.12.94s-.08.63-.13.94c-.1.64-.21,1.27-.33,1.9-.21,1.09-.44,2.17-.7,3.23a353.987,353.987,0,0,1-42.38-3.93c-18.55-3.11-39.28-6.47-55.19-11.27q-3.03-.915-5.81-1.9c-9.12-3.24-13.95-5.15-16.44-6.2.23-1.63.53-3.25.89-4.84q.63-2.76,1.5-5.42C15.32-962.727,15.8-964.027,16.32-965.307Z"/>
      <path id="Path_762" data-name="Path 762" class="cls-21" d="M73.31-1058.817A116.245,116.245,0,0,0-42.93-942.567,116.237,116.237,0,0,0,73.31-826.327a116.245,116.245,0,0,0,116.25-116.24A116.254,116.254,0,0,0,73.31-1058.817Zm-56.99,93.51a128.791,128.791,0,0,1,18.25-.95c21.39.4,31.04,5.96,48.31,7.4,10.9.91,26.63.33,46.52-7.04a61.09,61.09,0,0,1,4.67,22.75v.73c0,1.93-.09,3.83-.26,5.71-.06.62-.13,1.24-.21,1.85-.04.31-.08.63-.12.94s-.08.63-.13.94c-.1.64-.21,1.27-.33,1.9-.21,1.09-.44,2.17-.7,3.23a353.987,353.987,0,0,1-42.38-3.93c-18.55-3.11-39.28-6.47-55.19-11.27q-3.03-.915-5.81-1.9c-9.12-3.24-13.95-5.15-16.44-6.2.23-1.63.53-3.25.89-4.84q.63-2.76,1.5-5.42C15.32-962.727,15.8-964.027,16.32-965.307Z"/>
      <path id="Path_763" data-name="Path 763" class="cls-22" d="M24.2-979.206a61,61,0,0,1,48.778-24.3,61.009,61.009,0,0,1,49.453,25.216,69.051,69.051,0,0,1-10.307,2.965c-7.15,1.458-14.567,1.762-34.611-.554-15.2-1.757-19.593-2.936-26.285-3.7A107.911,107.911,0,0,0,24.2-979.206Z"/>
      <path id="Path_764" data-name="Path 764" class="cls-22" d="M134.07-943.147c-.91.39-1.88.79-2.9,1.17q-.765.285-1.56.57a69.053,69.053,0,0,1-8.98,2.49c-7.14,1.45-14.56,1.76-34.61-.56-2.38-.27-4.49-.53-6.38-.78-.76-.1-1.48-.19-2.18-.29-.34-.04-.68-.09-1.02-.14-.66-.09-1.29-.18-1.9-.27-6.68-.97-10.2-1.69-14.8-2.22a106.967,106.967,0,0,0-24.99.13q-3.03-.915-5.81-1.9c-9.12-3.24-13.95-5.15-16.44-6.2.23-1.63.53-3.25.89-4.84q.63-2.76,1.5-5.42c.43-1.32.91-2.62,1.43-3.9a128.791,128.791,0,0,1,18.25-.95c21.39.4,31.04,5.96,48.31,7.4,10.9.91,26.63.33,46.52-7.04A61.09,61.09,0,0,1,134.07-943.147Z"/>
      <path id="Path_765" data-name="Path 765" class="cls-22" d="M28.94-944.947q2.775.99,5.81,1.9c-2.76.32-5.65.75-8.66,1.34a136.439,136.439,0,0,0-14.07,3.45c-.09-1.37-.14-2.76-.14-4.16,0-1.55.06-3.09.17-4.61.1-1.39.25-2.76.45-4.12C14.99-950.1,19.82-948.187,28.94-944.947Z"/>
      <path id="Path_766" data-name="Path 766" class="cls-22" d="M89.94-931.777a353.987,353.987,0,0,0,42.38,3.93c-.02.11-.04.21-.07.32-.3,1.18-.63,2.34-.99,3.49a60.48,60.48,0,0,1-5.99,13.22c-.87,1.46-1.82,2.88-2.82,4.26a61.487,61.487,0,0,1-12.86,13.06,59.354,59.354,0,0,1-6.12,4.04h-.01a60.757,60.757,0,0,1-30.48,8.14,60.87,60.87,0,0,1-40.69-15.52q-1.785-1.59-3.44-3.32a60.547,60.547,0,0,1-6.49-8.04c-.68-1.01-1.34-2.04-1.96-3.09a60.649,60.649,0,0,1-6.57-15.78c-.12-.45-.23-.9-.34-1.36-.21-.91-.4-1.83-.58-2.75a61.132,61.132,0,0,1-.89-7.08,136.439,136.439,0,0,1,14.07-3.45c3.01-.59,5.9-1.02,8.66-1.34C50.66-938.247,71.39-934.887,89.94-931.777Z"/>
      <path id="Path_767" data-name="Path 767" class="cls-22" d="M132.32-927.847c.26-1.06.49-2.14.7-3.23-.2,1.09-.43,2.17-.69,3.23Z"/>
      <path id="Path_768" data-name="Path 768" class="cls-22" d="M133.02-931.077c.12-.63.23-1.26.33-1.9-.1.64-.21,1.27-.32,1.9Z"/>
      <path id="Path_769" data-name="Path 769" class="cls-22" d="M133.81-936.707c-.06.62-.13,1.24-.2,1.85-.04.31-.08.63-.13.94.04-.31.08-.63.12-.94C133.68-935.467,133.75-936.087,133.81-936.707Z"/>
      <path id="Path_770" data-name="Path 770" class="cls-23" d="M129.4-965.9c-19.89,7.37-35.62,7.95-46.52,7.04-17.27-1.44-26.92-7-48.31-7.4a128.791,128.791,0,0,0-18.25.95,60.618,60.618,0,0,1,7.88-13.9,108.12,108.12,0,0,1,27.03-.38c6.69.77,11.09,1.95,26.28,3.7,20.04,2.32,27.46,2.02,34.61.56a69.389,69.389,0,0,0,10.31-2.97A61.051,61.051,0,0,1,129.4-965.9Z"/>
      <path id="Path_771" data-name="Path 771" class="cls-23" d="M134.07-943.147v.73c0,1.93-.09,3.83-.26,5.71-.06.62-.13,1.24-.21,1.85-.04.31-.08.63-.12.94s-.08.63-.13.94c-.1.64-.21,1.27-.33,1.9-.21,1.09-.44,2.17-.7,3.23a353.987,353.987,0,0,1-42.38-3.93c-18.55-3.11-39.28-6.47-55.19-11.27a106.967,106.967,0,0,1,24.99-.13c4.6.53,8.12,1.25,14.8,2.22.61.09,1.24.18,1.9.27.34.05.68.1,1.02.14.7.1,1.42.19,2.18.29,1.89.25,4,.51,6.38.78,20.05,2.32,27.47,2.01,34.61.56a69.053,69.053,0,0,0,8.98-2.49q.795-.285,1.56-.57C132.19-942.357,133.16-942.757,134.07-943.147Z"/>
      <path id="Path_772" data-name="Path 772" class="cls-23" d="M132.32-927.847c-.03.11-.05.21-.08.32-4.03,1.29-7.87,2.3-11.52,3.08a99.43,99.43,0,0,1-29.33,2c-17.27-1.44-26.92-7-48.31-7.4a130.646,130.646,0,0,0-29.25,2.78h-.01c-.12-.45-.23-.9-.33-1.36-.21-.91-.4-1.83-.58-2.75a61.132,61.132,0,0,1-.89-7.08,136.439,136.439,0,0,1,14.07-3.45c3.01-.59,5.9-1.02,8.66-1.34,15.91,4.8,36.64,8.16,55.19,11.27A353.987,353.987,0,0,0,132.32-927.847Z"/>
      <path id="Path_773" data-name="Path 773" class="cls-23" d="M125.274-910.815q-1.319,2.191-2.824,4.26A61.479,61.479,0,0,1,109.586-893.5a95.56,95.56,0,0,1-17.927.2c-17.27-1.441-26.919-7-48.308-7.4a128,128,0,0,0-14.5.546,61.313,61.313,0,0,1-6.5-8.038c-.683-1.012-1.341-2.04-1.961-3.094a113.148,113.148,0,0,1,39.612-2.74c6.688.766,11.09,1.945,26.282,3.7,20.047,2.315,27.464,2.011,34.61.554C122.421-910.078,123.879-910.432,125.274-910.815Z"/>
      <path id="Path_774" data-name="Path 774" class="cls-24" d="M146.19-927.777c-.92,2.34-2.5,3.42-7.91,3.83q-3.525-.015-7.02-.09c-3.54-.09-7.06-.23-10.54-.41-39.39-2.13-74.2-10.53-94.63-17.26-4.44-1.47-8.21-2.85-11.19-4.07-1.03-.42-1.98-.84-2.85-1.25-14.96-6.98-7.4-11.66-3.77-13.04a21.78,21.78,0,0,1,6.61-1.34q-.87,2.655-1.5,5.42a14.408,14.408,0,0,0-2.36.46c-5.09,1.42-1.02,3.24-1.02,3.24a25.186,25.186,0,0,0,2.49,1.14c2.49,1.05,7.32,2.96,16.44,6.2q2.775.99,5.81,1.9c15.91,4.8,36.64,8.16,55.19,11.27a353.987,353.987,0,0,0,42.38,3.93h.01a55.472,55.472,0,0,0,6.2.15c4.4-.826-2.416-2.24-2.416-2.24l-3.084-1.14h-.01c.12-.63.23-1.26.33-1.9.05-.31.09-.62.13-.94s.08-.63.12-.94h.01a76.115,76.115,0,0,1,8.83,2.83C146.61-930.277,146.29-928.027,146.19-927.777Z"/>
    </g>
    <g id="Group_748" data-name="Group 748" transform="translate(1050.617 -745.037)">
      <path id="Path_775" data-name="Path 775" class="cls-25" d="M-122.2-422.6c-.409,15.85-13.839,28.27-29.69,28.27h-60.449a52.346,52.346,0,0,1-48.93-33.7,51.806,51.806,0,0,1-3.35-15.8c-.051-.94-.081-1.9-.081-2.86a1.512,1.512,0,0,1,.02-.3h-.02v-126.42a28.853,28.853,0,0,1,2.921-12.7,29.052,29.052,0,0,1,26.129-16.35,28.954,28.954,0,0,1,20.541,8.51,28.919,28.919,0,0,1,5.52,7.7,28.818,28.818,0,0,1,2.99,12.84v90.92a30.062,30.062,0,0,0,30.06,30.06h25.3a28.983,28.983,0,0,1,5.631.55A29.049,29.049,0,0,1-122.2-422.6Z"/>
      <circle id="Ellipse_115" data-name="Ellipse 115" class="cls-9" cx="15.464" cy="15.464" r="15.464" transform="translate(-224.857 -586.848)"/>
      <circle id="Ellipse_111" data-name="Ellipse 111" class="cls-9" cx="15.464" cy="15.464" r="15.464" transform="translate(-278.79 -585.366)"/>
      <circle id="Ellipse_175" data-name="Ellipse 175" class="cls-25" cx="6.321" cy="6.321" r="6.321" transform="translate(-258.324 -533.493)"/>
      <circle id="Ellipse_176" data-name="Ellipse 176" class="cls-26" cx="6.5" cy="6.5" r="6.5" transform="translate(-239.373 -524.04)"/>
      <circle id="Ellipse_177" data-name="Ellipse 177" class="cls-26" cx="4.361" cy="4.361" r="4.361" transform="translate(-223.207 -458.429)"/>
      <circle id="Ellipse_178" data-name="Ellipse 178" class="cls-26" cx="4.361" cy="4.361" r="4.361" transform="translate(-230.735 -595.234)"/>
      <path id="Path_776" data-name="Path 776" class="cls-26" d="M-251-436.613a8.722,8.722,0,0,1-8.721,8.72,8.758,8.758,0,0,1-1.549-.14,51.806,51.806,0,0,1-3.35-15.8,8.752,8.752,0,0,1,4.9-1.5A8.722,8.722,0,0,1-251-436.613Z"/>
      <path id="Path_777" data-name="Path 777" class="cls-26" d="M-145.6-447.583a8.718,8.718,0,0,1-10.581,6.34,8.727,8.727,0,0,1-6.33-10.59q.075-.3.181-.6h11.089a28.983,28.983,0,0,1,5.631.55A8.7,8.7,0,0,1-145.6-447.583Z"/>
      <circle id="Ellipse_179" data-name="Ellipse 179" class="cls-26" cx="3.793" cy="3.793" r="3.793" transform="translate(-173.971 -409.621)"/>
      <circle id="Ellipse_180" data-name="Ellipse 180" class="cls-26" cx="2.222" cy="2.222" r="2.222" transform="translate(-250.151 -540.484)"/>
      <circle id="Ellipse_181" data-name="Ellipse 181" class="cls-27" cx="5.496" cy="5.496" r="5.496" transform="translate(-268.822 -575.397)"/>
      <circle id="Ellipse_182" data-name="Ellipse 182" class="cls-27" cx="5.949" cy="5.949" r="5.949" transform="translate(-215.343 -577.333)"/>
      <path id="Path_778" data-name="Path 778" class="cls-28" d="M-216.907-513.882a29.9,29.9,0,0,0,17.416.083c14.458-4.549,19.478-19.462,20.5-22.5a40.187,40.187,0,0,0,.5-23.25"/>
      <path id="Path_779" data-name="Path 779" class="cls-28" d="M-258.324-512.558c-1.759.088-16.556.571-26.667-11.333a32.962,32.962,0,0,1-5.555-32.667"/>
      <path id="Path_780" data-name="Path 780" class="cls-29" d="M-248.257-543.94a16.062,16.062,0,0,0,9.485,5.453c8.858,1.408,15-5.924,15.293-6.283"/>
      <path id="Path_781" data-name="Path 781" class="cls-30" d="M-247.326-542.784a15.065,15.065,0,0,0,8.772,4.693c8.192,1.212,13.876-5.1,14.145-5.407"/>
    </g>
    <g id="Group_749" data-name="Group 749" transform="translate(1146.601 -761.582)">
      <path id="Path_783" data-name="Path 783" class="cls-31" d="M-559.465-420.373a72.218,72.218,0,0,0-17.982-10.4,71.654,71.654,0,0,0-20.739-4.909v-5.68a7.522,7.522,0,0,1-3.157-6.132,7.524,7.524,0,0,1,3.157-6.133v-4.244a19.633,19.633,0,0,0,15.293-19.145,19.634,19.634,0,0,0-19.636-19.636c-.324,0-.642.007-.959.022a9.011,9.011,0,0,1,2.145,5.853c0,.317-.015.635-.045.944a12.87,12.87,0,0,1,11.729,12.817,12.872,12.872,0,0,1-12.87,12.876A12.872,12.872,0,0,1-615.4-477.015a12.833,12.833,0,0,1,1.239-5.514,9.083,9.083,0,0,1-4.8-5.241,19.494,19.494,0,0,0-3.21,10.755,19.633,19.633,0,0,0,15.294,19.145v21.97a72.461,72.461,0,0,0-69.95,72.427c0,40.02,31.606,50.314,71.626,50.314,27.77,0,52.293-4.955,64.7-21.358,4.456-5.884,7.356-13.24,8.27-22.37a61.391,61.391,0,0,0,.333-6.586A72.345,72.345,0,0,0-559.465-420.373ZM-584.486-367.4c-.3.256-.612.513-.929.762s-.627.484-.944.718h-.008a29.7,29.7,0,0,1-3.051,1.948c-.71.393-1.435.763-2.175,1.1s-1.495.65-2.273.929c-.385.144-.778.272-1.171.4a30.6,30.6,0,0,1-5.634,1.224,31.577,31.577,0,0,1-3.753.226c-.355,0-.71-.007-1.058-.022s-.71-.031-1.057-.053c-.174-.015-.34-.023-.514-.038-.294-.03-.589-.06-.876-.091-.1-.015-.2-.022-.309-.037-.325-.046-.65-.091-.975-.144a1.974,1.974,0,0,1-.226-.038c-.37-.06-.733-.128-1.095-.2s-.74-.159-1.1-.242a.925.925,0,0,0-.151-.038c-.37-.1-.732-.2-1.1-.3s-.77-.227-1.147-.355c-.242-.083-.476-.159-.71-.249-.2-.068-.4-.144-.589-.219-.862-.325-1.7-.7-2.515-1.1-.2-.1-.408-.2-.612-.31-.272-.136-.536-.279-.8-.43-.332-.182-.657-.371-.981-.574-.2-.114-.393-.227-.582-.355s-.385-.242-.574-.378a6.772,6.772,0,0,1-.559-.385c-.385-.257-.763-.536-1.133-.823-.173-.129-.34-.265-.506-.4-.377-.294-.747-.6-1.1-.929-.152-.128-.3-.264-.446-.407-.166-.144-.332-.3-.5-.469-.167-.151-.333-.309-.484-.475-.34-.325-.649-.65-.944-.99a5.757,5.757,0,0,1-.453-.513,25.793,25.793,0,0,1-2.107-2.7c-.144-.189-.264-.378-.385-.567a28.032,28.032,0,0,1-1.737-2.99,30.564,30.564,0,0,1-3.1-10.181,30.674,30.674,0,0,1,13.058-28.986c.189-.143.37-.264.567-.385a6.677,6.677,0,0,1,.581-.37q.3-.192.589-.363c.393-.241.8-.468,1.209-.679.445-.242.891-.469,1.344-.672a5.488,5.488,0,0,1,.529-.25,7,7,0,0,1,.642-.279q.294-.137.589-.249c.672-.265,1.359-.514,2.054-.733.453-.143.906-.279,1.367-.4a29.9,29.9,0,0,1,4.252-.823,31.614,31.614,0,0,1,3.761-.227c.378,0,.763.008,1.14.023h.129c.4.022.8.045,1.2.083s.823.075,1.231.121.808.105,1.215.173h.016c.8.136,1.593.3,2.379.491s1.563.423,2.326.672c.34.114.68.234,1.012.363.672.249,1.337.521,1.986.816.325.151.642.3.967.46.634.317,1.261.657,1.873,1.02a30.922,30.922,0,0,1,10.6,10.347,30.738,30.738,0,0,1,4.35,12.438A30.671,30.671,0,0,1-584.486-367.4Z"/>
      <path id="Path_784" data-name="Path 784" class="cls-31" d="M-600.657-360.32A30.71,30.71,0,0,1-634.839-387.1a30.707,30.707,0,0,1,26.78-34.19,30.7,30.7,0,0,1,34.182,26.781A30.707,30.707,0,0,1-600.657-360.32Z"/>
      <path id="Path_785" data-name="Path 785" class="cls-9" d="M-600.657-360.32A30.71,30.71,0,0,1-634.839-387.1a30.707,30.707,0,0,1,26.78-34.19,30.7,30.7,0,0,1,34.182,26.781A30.707,30.707,0,0,1-600.657-360.32Z"/>
      <circle id="Ellipse_110" data-name="Ellipse 110" cx="13.831" cy="13.831" r="13.831" transform="translate(-624.659 -407.73)"/>
      <path id="Path_786" data-name="Path 786" class="cls-32" d="M-585.417-349.647a9.633,9.633,0,0,0,10.932,4.619c4.808-1.494,6.353-6.817,6.312-10.161a11.27,11.27,0,0,0-1.693-5.7"/>
      <circle id="Ellipse_183" data-name="Ellipse 183" class="cls-33" cx="4.909" cy="4.909" r="4.909" transform="translate(-654.249 -414.866)"/>
      <path id="Path_787" data-name="Path 787" class="cls-33" d="M-559.464-420.376a10.383,10.383,0,0,1-8.708,4.712,10.4,10.4,0,0,1-10.4-10.407,10.371,10.371,0,0,1,1.125-4.7A72.2,72.2,0,0,1-559.464-420.376Z"/>
      <circle id="Ellipse_184" data-name="Ellipse 184" class="cls-33" cx="3.294" cy="3.294" r="3.294" transform="translate(-642.04 -365.314)"/>
      <circle id="Ellipse_185" data-name="Ellipse 185" class="cls-34" cx="10.243" cy="10.243" r="10.243" transform="translate(-661.282 -387.929)"/>
      <circle id="Ellipse_186" data-name="Ellipse 186" class="cls-34" cx="10.243" cy="10.243" r="10.243" transform="translate(-569.706 -388.936)"/>
      <circle id="Ellipse_187" data-name="Ellipse 187" class="cls-33" cx="3.294" cy="3.294" r="3.294" transform="translate(-552.922 -397.193)"/>
      <circle id="Ellipse_188" data-name="Ellipse 188" class="cls-33" cx="3.294" cy="3.294" r="3.294" transform="translate(-671.83 -347.356)"/>
      <circle id="Ellipse_189" data-name="Ellipse 189" class="cls-33" cx="2.865" cy="2.865" r="2.865" transform="translate(-604.855 -328.452)"/>
      <path id="Path_788" data-name="Path 788" class="cls-33" d="M-532.222-356.891c-.914,9.131-3.814,16.487-8.27,22.37a11.915,11.915,0,0,1-7.673-11.14,11.926,11.926,0,0,1,11.925-11.925A11.8,11.8,0,0,1-532.222-356.891Z"/>
      <path id="Path_789" data-name="Path 789" class="cls-33" d="M-601.343-490.776c0,.317-.015.635-.045.944-.378-.037-.756-.053-1.141-.053a12.862,12.862,0,0,0-11.63,7.356,9.083,9.083,0,0,1-4.8-5.241,19.607,19.607,0,0,1,15.467-8.859A9.011,9.011,0,0,1-601.343-490.776Z"/>
      <path id="Path_790" data-name="Path 790" class="cls-33" d="M-598.186-453.626v12.265a7.522,7.522,0,0,1-3.157-6.132A7.524,7.524,0,0,1-598.186-453.626Z"/>
    </g>
    <path id="Path_850" data-name="Path 850" class="cls-16" d="M133.738-547.831a15.451,15.451,0,0,0-.09,7.091,14.431,14.431,0,0,0,5.952,8.346c3.457,2.521,8.337,4.432,14.479,5.687,14.028,2.878,34.61,2.383,61.193-1.451q4.239-.6,8.467-1.151v63.267c-19.529-.4-43.057-1.07-71.053-2.164-46.364-1.8-107.818,9.9-187.869,35.789-69.059,22.332-140.083,51.284-202.749,76.85l-.04.012c-25.511,10.395-49.59,20.214-71.234,28.629-7.575,2.947-15.662,5.813-24.059,8.518-8,2.579-16.523,5.111-25.351,7.506-16.243,4.4-33.778,8.484-53.618,12.478-36.724,7.39-75.132,13.192-112.277,18.787l-.01.011v-.011c-61.584,9.29-120.433,18.165-165.123,33.256a236.961,236.961,0,0,0-30.011,12.237c-1.032-.311-2.064-.633-3.1-.944q-4.689-1.45-9.289-2.97c-.962-.311-1.924-.633-2.886-.944q-7.275-2.435-14.329-5.03c-.772-.277-1.543-.564-2.3-.852-1.613-.587-3.206-1.186-4.8-1.8-1.192-.449-2.375-.909-3.557-1.37-2.555-.99-5.08-1.991-7.605-3A245.221,245.221,0,0,1-750.6-269.162q7.8-7.529,16.243-14.435c2.114-1.727,4.259-3.431,6.423-5.088l.03-.012q9.619-7.391,19.81-13.94Q-687.3-316-665.614-327.479c2.234-1.174,4.459-2.325,6.693-3.476q6.613-3.384,13.287-6.608,10.4-5.007,20.932-9.589l1.834-.794q6.4-2.763,13.016-5.445c9.75-3.96,19.77-7.724,29.91-11.281q11.438-3.988,23.487-7.759,9.635-3,19.539-5.825,7.545-2.141,15.261-4.178c8.958-2.372,18.157-4.651,27.776-6.884,13.487-3.143,27.536-6.147,42.967-9.175,28.568-5.594,57.386-10.418,85.262-15.057l.07-.011.11-.023c20.822-3.477,42.376-7.068,63.328-10.925,23.5-4.328,43.9-8.553,62.376-12.915,8.848-2.1,18.577-4.835,28.9-8.151,9.85-3.154,20.582-6.941,31.914-11.235,20.932-7.943,44.249-17.785,71.294-30.056,22.566-10.257,48.277-22.47,78.6-37.355,27.075-13.284,55.372-27.5,82.747-41.245l.06-.035c56.895-28.559,115.633-58.052,169.993-82.721v48.486q-8.507,2.97-16.293,5.779c-31.664,11.419-51.634,19.949-57.746,24.658-.03.011-.06.046-.09.057l-.08.058a52.907,52.907,0,0,0-12.686,13.929A26.726,26.726,0,0,0,133.738-547.831Z" transform="translate(1060.055 -725.99)"/>
  </g>
</svg>
