<svg xmlns="http://www.w3.org/2000/svg" width="222.783" height="265.508" viewBox="0 0 222.783 265.508">
  <g id="Group_826" data-name="Group 826" transform="translate(-2213.007 2044.448)">
    <path id="Path_908" data-name="Path 908" d="M2435.79-1833.59v34.65a20,20,0,0,1-20,20H2286.78c-.65-1.27-1.26-2.56-1.83-3.86-.41-.93-.81-1.88-1.18-2.83a78.1,78.1,0,0,1-4.21-14.72c-.26-1.4-.49-2.84-.67-4.28a1.715,1.715,0,0,1-.03-.45h-.03l-12.75-99.01-8.03-62.38-1.95-15.14-1.71-13.25c-.12-.91-.21-1.83-.26-2.74a43.465,43.465,0,0,1,1.79-15.62c.12-.42.26-.85.4-1.27a43.982,43.982,0,0,1,36.07-29.59,43.816,43.816,0,0,1,32.48,8.8,43.351,43.351,0,0,1,9.2,9.68c.21.27.39.54.57.81a43.447,43.447,0,0,1,6.06,13.76v.01a45.071,45.071,0,0,1,.91,4.93l1.41,10.93,1.92,14.95,8.9,69.06,5.35,41.55a45.51,45.51,0,0,0,50.94,39.32l21.33-2.75Z" fill="#8ba4d4"/>
    <circle id="Ellipse_115" data-name="Ellipse 115" cx="23.406" cy="23.406" r="23.406" transform="translate(2314.409 -2025.911)" fill="#fff"/>
    <circle id="Ellipse_111" data-name="Ellipse 111" cx="23.406" cy="23.406" r="23.406" transform="translate(2233.732 -2013.261)" fill="#fff"/>
    <circle id="Ellipse_175" data-name="Ellipse 175" cx="9.567" cy="9.567" r="9.567" transform="translate(2272.83 -1937.464)" fill="#8ba4d4"/>
    <circle id="Ellipse_176" data-name="Ellipse 176" cx="9.838" cy="9.838" r="9.838" transform="translate(2303.138 -1926.974)" fill="#7792ca"/>
    <circle id="Ellipse_177" data-name="Ellipse 177" cx="6.601" cy="6.601" r="6.601" transform="translate(2339.703 -1831.164)" fill="#7792ca"/>
    <circle id="Ellipse_178" data-name="Ellipse 178" cx="6.601" cy="6.601" r="6.601" transform="translate(2301.957 -2035.08)" fill="#7792ca"/>
    <path id="Path_909" data-name="Path 909" d="M2294.75-1778.94h-7.97c-.65-1.27-1.26-2.56-1.83-3.86-.41-.93-.81-1.88-1.18-2.83a78.1,78.1,0,0,1-4.21-14.72,13.255,13.255,0,0,1,7.07-3.2,13.2,13.2,0,0,1,14.77,11.41A13.166,13.166,0,0,1,2294.75-1778.94Z" fill="#7792ca"/>
    <path id="Path_910" data-name="Path 910" d="M2435.79-1833.59v13.05a13.147,13.147,0,0,1-4.49-11.55c.04-.31.09-.63.16-.94Z" fill="#7792ca"/>
    <circle id="Ellipse_180" data-name="Ellipse 180" cx="3.364" cy="3.364" r="3.364" transform="translate(2283.006 -1948.697)" fill="#7792ca"/>
    <circle id="Ellipse_181" data-name="Ellipse 181" cx="8.318" cy="8.318" r="8.318" transform="translate(2248.82 -1998.173)" fill="#131313"/>
    <circle id="Ellipse_182" data-name="Ellipse 182" cx="9.005" cy="9.005" r="9.005" transform="translate(2328.811 -2011.51)" fill="#131313"/>
    <path id="Path_778" data-name="Path 778" d="M2374.978-1996a45.259,45.259,0,0,1,14.588,21.956c6.27,22.068-8.415,40.818-11.408,44.638a60.825,60.825,0,0,1-28.988,19.967" fill="none" stroke="#8ba4d4" stroke-linecap="round" stroke-miterlimit="10" stroke-width="9"/>
    <path id="Path_779" data-name="Path 779" d="M2275.733-1904.737c-2.624.472-24.744,4.057-42.224-11.859a49.89,49.89,0,0,1-14.654-47.965" fill="none" stroke="#8ba4d4" stroke-linecap="round" stroke-miterlimit="10" stroke-width="9"/>
    <path id="Path_780" data-name="Path 780" d="M2284.779-1953.794a24.311,24.311,0,0,0,15.294,6.352c13.569.4,21.376-11.792,21.743-12.388" fill="none" stroke="#e9a7ac" stroke-linecap="round" stroke-miterlimit="10" stroke-width="8"/>
    <path id="Path_781" data-name="Path 781" d="M2286.4-1952.238a22.8,22.8,0,0,0,14.075,5.347c12.533.235,19.843-10.335,20.19-10.852" fill="none" stroke="#030504" stroke-linecap="round" stroke-miterlimit="10" stroke-width="3"/>
  </g>
</svg>
